<?xml version="1.0" encoding="UTF-8"?>
<!-- Generator: Adobe Illustrator 13.0.2, SVG Export Plug-In . SVG Version: 6.00 Build 14948)  -->
<!DOCTYPE svg PUBLIC "-//W3C//DTD SVG 1.0//EN" "http://www.w3.org/TR/2001/REC-SVG-20010904/DTD/svg10.dtd">
<svg version="1.0" id="svg2241" xmlns:x="http://ns.adobe.com/Extensibility/1.0/" xmlns:i="http://ns.adobe.com/AdobeIllustrator/10.0/" xmlns:graph="http://ns.adobe.com/Graphs/1.0/" xmlns:cc="http://web.resource.org/cc/" xmlns:dc="http://purl.org/dc/elements/1.1/" xmlns:sodipodi="http://sodipodi.sourceforge.net/DTD/sodipodi-0.dtd" sodipodi:modified="true" sodipodi:docbase="D:\Guillermo\cps\Subsistemas" xmlns:rdf="http://www.w3.org/1999/02/22-rdf-syntax-ns#" xmlns:svg="http://www.w3.org/2000/svg" xmlns:inkscape="http://www.inkscape.org/namespaces/inkscape" sodipodi:docname="multitouch.svg" inkscape:version="0.45" sodipodi:version="0.32" inkscape:output_extension="org.inkscape.output.svg.inkscape" xmlns="http://www.w3.org/2000/svg" xmlns:xlink="http://www.w3.org/1999/xlink" x="0px" y="0px" width="255px" height="185px" viewBox="0 0 255 185" enable-background="new 0 0 255 185" xml:space="preserve">
<metadata><?xpacket begin="﻿" id="W5M0MpCehiHzreSzNTczkc9d"?>
<x:xmpmeta xmlns:x="adobe:ns:meta/" x:xmptk="Adobe XMP Core 4.1-c036 46.277092, Fri Feb 23 2007 14:16:18        ">
   <rdf:RDF xmlns:rdf="http://www.w3.org/1999/02/22-rdf-syntax-ns#">
      <rdf:Description rdf:about="" xmlns:dc="http://purl.org/dc/elements/1.1/">
         <dc:format>image/svg+xml</dc:format>
      </rdf:Description>
      <rdf:Description rdf:about="" xmlns:xap="http://ns.adobe.com/xap/1.0/" xmlns:xapGImg="http://ns.adobe.com/xap/1.0/g/img/">
         <xap:CreatorTool>Adobe Illustrator CS3</xap:CreatorTool>
         <xap:CreateDate>2010-06-26T12:25:38+10:00</xap:CreateDate>
         <xap:ModifyDate>2010-06-26T12:25:38+10:00</xap:ModifyDate>
         <xap:MetadataDate>2010-06-26T12:25:38+10:00</xap:MetadataDate>
         <xap:Thumbnails>
            <rdf:Alt>
               <rdf:li rdf:parseType="Resource">
                  <xapGImg:width>256</xapGImg:width>
                  <xapGImg:height>188</xapGImg:height>
                  <xapGImg:format>JPEG</xapGImg:format>
                  <xapGImg:image>/9j/4AAQSkZJRgABAgEASABIAAD/7QAsUGhvdG9zaG9wIDMuMAA4QklNA+0AAAAAABAASAAAAAEA
AQBIAAAAAQAB/+4ADkFkb2JlAGTAAAAAAf/bAIQABgQEBAUEBgUFBgkGBQYJCwgGBggLDAoKCwoK
DBAMDAwMDAwQDA4PEA8ODBMTFBQTExwbGxscHx8fHx8fHx8fHwEHBwcNDA0YEBAYGhURFRofHx8f
Hx8fHx8fHx8fHx8fHx8fHx8fHx8fHx8fHx8fHx8fHx8fHx8fHx8fHx8fHx8f/8AAEQgAvAEAAwER
AAIRAQMRAf/EAaIAAAAHAQEBAQEAAAAAAAAAAAQFAwIGAQAHCAkKCwEAAgIDAQEBAQEAAAAAAAAA
AQACAwQFBgcICQoLEAACAQMDAgQCBgcDBAIGAnMBAgMRBAAFIRIxQVEGE2EicYEUMpGhBxWxQiPB
UtHhMxZi8CRygvElQzRTkqKyY3PCNUQnk6OzNhdUZHTD0uIIJoMJChgZhJRFRqS0VtNVKBry4/PE
1OT0ZXWFlaW1xdXl9WZ2hpamtsbW5vY3R1dnd4eXp7fH1+f3OEhYaHiImKi4yNjo+Ck5SVlpeYmZ
qbnJ2en5KjpKWmp6ipqqusra6voRAAICAQIDBQUEBQYECAMDbQEAAhEDBCESMUEFURNhIgZxgZEy
obHwFMHR4SNCFVJicvEzJDRDghaSUyWiY7LCB3PSNeJEgxdUkwgJChgZJjZFGidkdFU38qOzwygp
0+PzhJSktMTU5PRldYWVpbXF1eX1RlZmdoaWprbG1ub2R1dnd4eXp7fH1+f3OEhYaHiImKi4yNjo
+DlJWWl5iZmpucnZ6fkqOkpaanqKmqq6ytrq+v/aAAwDAQACEQMRAD8A9U4q7FXYq7FXYq7FXYq7
FXYqh9Q1Gw02ymv9QuYrSyt1Lz3M7rHGijuzsQAMVeD+efz41bWDJp/kvnpuln4ZNemSlzMv/LpD
IP3Sn/fkq8vBRs2KvK5tLs7i5N5dB7rUCeR1C4kkluuX831h2aUN7hsVeofln+c99oVzHo3nG9a6
0KUhLLXbhi01q5O0d5Id3iboszbqft1HxBV9BqysoZSGVhVWG4IPcYq3irsVdirsVdirsVdirsVd
irsVdirsVYn+Yn5leXfIuki71Jmnv7iqaZpMHxXN1KB9mNBWij9pzsvzoCkq8CsfOX5oah5hm8za
xrdxYNNtZ+XrOUiytoq/CsiD4ZZBXdiP4AYuTP0DdHH3s30785fNdqQLsQXydy6em/0GPiv/AAuQ
GeQScYemeVfO0euaeLueyksAxonJhIrjxUgK1P8AY5P83C6KPBPRkcU0Uq8o3Dj2NcyIzEuRajEj
mvySHYq7FXYq7FXYq7FXYq7FWFfmB+bHlryav1WUtqOvSpzttFtSDMQdg8zH4YIq/tv1/ZDHbFXz
35q8z+Y/OF+t55iuA8MT87LSIaiztyPssFO8so/34+/8oUbYql+nw3+r6n+idFgF5qAAMpJK29uD
WjXMoDemNthQsewwgEsJ5BEbsqm/J/zbHbmT9O2ZvgtfqptHFvWn2fVExkp/lcf9jlvhOIdZR5MQ
mS8tr6fSNXtTZ6lEtZbZiHjkiaoEkT04yRt946MAcqlEhy4ZBIWGeflh+bFz5NaLRtdlafyh9i2u
SC8um+CmlWe2/GP/AFPshm+j4J4LiCO4t5FmgmVZIpY2DI6MKqysKggg1BGKr8VdirsVdirsVdir
sVdirsVU7m6trW3kuLqVILeIcpZpWCIqjuzNQAYq8i82f85CaYXl03yJEmu36/DJqzVGmW58fUFG
uGH8sW3iwyE8gjzZRiS8s+r3E+pzazq13JquuXO0+o3FOQXqI4kWiRRjsiCmYc8hk3RiArM2VsmZ
+UPIU14yX+qoYrMUaK2Ozy+7fyr+JynJlrYNkYd701EREVEUKigBVAoAB0AGYzYvR3RuSMVYdCDQ
4RIjcKRbxOT/AJyw1RPzQPlrSdHj1/RXuItPtXgcx3UtwW4O8b1aJk5miggVAryFc3eDi4Rxc3Ay
Vez6Xy5g7FXYq7FXYq7FVK7vLSztZbu8njtrWBTJPcTMscaIoqWd2IVQPE4q8L89fn3e6lz07yMT
b2W6zeYpo/ifxFlDIOn/ABbIKfyqdmxV5ORBaLLcTSs8szc7m6ndpJppG25SSMS7ux8fkMVZJ5X/
AC98xeY3S5vhLomhg1+NeN9cgfyI4/cIf5nHI9lHXJxhbi5dSI7Dm9h0rQNG0jTxaaNaR2VshLNb
xCnxH7Tk9WJ7k75cNnBmTLdGhVMYFyeKf7rP7X+1kmI5bsc87eV7PzHpp0+4JtZIm9axu4ftxSgE
LICftgg0ZTsRthMQQmOUwOzxW5ttS0nU20XWUCagil4ZkB9G5hBA9WIn5jknVT7UOYsomJdriyiY
sMu/Lb8zr7yJOLK+Mt55NkJ5W6KZJdPZiSZbdR8Twkn44h9n7Sd1MWx9L2N9ZahZQX1jOlzZ3KLL
b3ETB43jcVVlYbEEYqr4q7FXYqwfzd+bWhaFeTaVp9tceYNegXlcabpwVhbg9GvLhysFsv8ArtWm
9KZGUxHmUiJPJ5OP+cn/ADxqFwf0P5Ts5LUEqZ/rjTxhlNCPW4W6PTxi5r4HInKBzSIFMJvz8/Mh
x+50DTIdhXnPLMeXc0HpD6OX05Dx4svDKAuvzX/N68HIappumA/7rtdPZ2Ap/PcXEwr/ALHInUeS
fCSq486fnDPyB88TRo37EWn6etB/kt6XIffg/MeS+Exu+8vT6xOs/mfWdR8xMjco4dQuGeBD/kQr
xQZGWeRZDGE2iSGCJYoUWKJBRI0AVQPAAbDKSWaZaRoOr6vLwsbdnUGjzH4Y1+bHb6OuQlMDmkAl
6R5b/L/TtLKXN4ReXq0Kkj92h/yVPU+5/DMeeUltjCmV5Uzdirx//nIz80x5T8tHQ9Nm46/rMbIr
KaNb2p+GSbbcM32E+k/s5l6TDxSs8g05p0KSP/nDz8pxST8xNVh3+O28vo4+aT3Ir9MSn/X9s27h
PqnFXYq7FXYq7FWI+ffzP8s+TLdVvpDdavOvKy0a2o1zNvTkQSBHHXrI5C/M7Yq+efN/nDzN51uR
L5glVNPjf1LTQrck2sRB+FpSaG4lH8zig/ZVcVSmyjvNS1SPSNJga91OQjlElQkKn/dlxIAwiT3O
57A4sZTEeb1Lyh+UVppM8Wp+YpE1XXIvihULSztm6gwRt9px/v1/i8OOWRDg5c5O3IPQaev8NP3o
6N4geP8AXJtHP3qTFbdvh+KYdW7KfYd8kN2J296jKPXrIv8AedXTx91yQYnfdaoURhbo0jO6KPti
vceAyXuQPNIfOPluw8w6Y2mX6lIgRLaTwni8Uq/Ymib+Ye/XodtsJiCN1jklA2HjN/pur6FfLpmt
LWRyRY6gq8YbxFFSy/yyKPtx9uoquYk4GJdthzCYsMi/L78xNU8h3hUJLf8Ale4cteaUh5Pbsxq0
9mpIG5JMkXRuoo32oNz6a0fWNM1nTLbVNLuUu9Pu0EtvcRGqsp/UR0IO4Ox3xVT13zDoWgWD6hrV
/Bp9mmxmuHWNSeyrX7THso3OKvOPMPnTzH5ltJhpEsnlPykil77zPegW97LCBVvqcMwH1ZSP93zA
N3VOjZiZdUBtHeTdDCTudg8o8yRyapp0Wh6Lp8+kfl7GfULsksc2ruTyM0sj0k9Fj8VWPKTqdqZR
E0bJuf3Nh32H0odFigiVECxwxqAqiiqqgbAeAGBUovvOfl+zJVrkTOP2IRz/AOGHw/jkxjJYmQSi
b8zbQE+hZSOO3N1T9QfJjCjjag/MgytQ6Y9PFJOf/Gi4nF5rxsu8q32l+YLpLZ72LS5XICpeEoWJ
7KV5IT7FhlUwY+bOJt6xof5f+WoJH9aYalcwECZCwCI3g0akkfJjmJLLL3NogGYRRRQxrFEixxoK
IiAKoHgAMqZrsUuxVI/OvnDSfKHlu817VHpb2q/u4gQHllP2Ikr+05+7r0GTx4zOVBjKQAt8qeRf
IfnH89fzBu9Z1F3g0n1g+q6gK8IYh9i1t+Wxfhso7D4m995jgIig4EpWbfdOk6VYaRpdppenQrb2
FjClvawr0SONQqj7hk2KLxV2KuxVZNNDBC80zrFDEpeSRyFVVUVLMTsAB1OKvEfPf5+y3Jl0zyJx
ZPiSbzJKoaIU2P1KJtpj4SP+78A4xV5A5iga4v7y4aW4mPqXuoXUheWVgKcpZXNT7dh0GKsj8neQ
Nf8ANxS5kMujeXHBpfsvG7uAehtonBCof9+OP9VT1xacmYDZ7RoPlXRPLVgNP0m1W2hrzkcVaSVy
KGSWQ1aRj/MxyQcGZJO6aAAx0mPFP2G7/R7ZII96HuGZf3YHFOtBvX3J75MMJHosUeuOBH7xRs/s
Ozf1ySOak5W3aiisy9XPQH2B/XkhuxPp96lIPrNWX+//AGl/m9x7+2SGzE+r3rQ0UK+nP+83r6Y3
CHxr4+2S5rYGxSTzToFjrunyWGpp61tLRoZU+Fo2X7EkTD7DoelMPCCKQJyjKw8n8v8AlWznh1HU
/M+s+h5J0mVoYtVhYwS6k0ezKpX4lWNgUZovtt9ggVzT6nMYy4Ibyeg044o8Utk60v8AJ/TvM6i4
0/R38o+XZG5xSzTXNxq1yp/3YI55ZIbYP/xYrufAZiHUmHM8R+xyBiB6UGVXehflf+V2nR6munfW
dWdvT04Pyu9Rurg9I7bnyZSxIr6YVR3ynjyZTV7fYz4YwReheT9e8wXEevfmAVeUOJdN8rRNysbK
hqjTDpc3A/mf4VP2R0pGWQR2h80iJO8lLzt+c2haEZLLTAuqamtVYK3+jxt/luPtEfyr9JGHHpzL
c7BZZAHhfmTzRq/mO5abU5FdSarbxoqRL4UQdfm1T75mwgI8miUiWO3UdpBF6otw55AcETmxFfio
q7/CoJ+jLBZYlD2Op6fdPxtYV3qEBMasxHWiAlxT3AyRiQgFHCZ1J9X0kC/apJUj71GRpL038u/y
VuvMaxav5kMtpoL0e1sI2MU92vUPIwo0cR7AUZuuw642XUCO0ebbDHe55PfNL0nTNJsY7HTLWKzs
4hSOCBAiD6B38TmBKRJsuQBSLwJdiqWW3mXRp/LkfmI3Cw6RJbC8NzKQqpCV5lm8KDJGB4uHqx4h
VvCv8N+a/wDnIXzal2pl0j8stJlZLa6ZSHuSDR2iRtmlelOR+GNfFqhtxp8HhjzcPLk4j5PqHyz5
Y0LyxottouhWaWWm2q0ihjHc/aZmO7Mx3ZjucyGpNMVdirsVYv55/Mfyv5MtUk1WcyX04JstLtwJ
Lucj+SOooo7u5CjucVfO/nXzx5n87zEay4tNGVg1v5ft2JgFDUG6eim5cHsQEHZa/FiqRxC7ur6P
TNLtJNQ1SUVisoBUgdOUjH4Yk/ynIGKDIDm9Z8j/AJOWtjImp+bWi1XUvhaLT1XlZWrKahkDissg
/wB+OPkoyNuLPNfuelPE3IcfiB+yRkg45C3nGg4t8e/XqF/rkgtgIW4DhqseVdw3YjJhrk0oHp0n
NIz9j+b6PbJL03ULksvwABY+q06N7175IMJLEX1o6SfCq7LMe3+SfHJIAsbqMzmEmOMFCPtOftH6
R0HyyQ3Yk1sFJh9Z6ACfw6B/+bslyR9XvYZ5t1Fby1utKW6MWkxMYtYuIWAkkkABaxtnB+GQg/v5
B9hTQfGfhwdXquH0x+p2Oi0d+qXJS/L3y9F5ruYPNWq28Y0PTz6PlTSFQLbRrCeP1oRfZ2I4w1Gw
HPqRTTZZ8HpHM83cwHFv06Mr/MXzBrWmaZaaf5eVH8ya5crYaUZRWOJirSTXEg3qkMMbOdjvTY5V
igCbP0hsmSOXNZ5e8j6P5c565q94+ra8sR+ueYNRYF0QAl1hU/Bbxbn4Ep7k4zymWw2HcoiBuXl3
5kfnBeau82laDI1tpQqkt0tVluB0NO6Rnw6nv4Zk4cFbnm1TyXyeXSyxwpykNKmiqASzHwVRux9h
mUBbSlB19VtZWHGG5YvxSfmSlDRQ8cavIKrv9kL75ZwMeJJp9d0me7tVuvXksoQXJaFDyY9f3JkA
au/xmT5AUIaYixtmWk2c88fpaTpxubgcWextIZVnSJ91lkSSKEBKb8uRX3yuQrclmPJ6h+Wv5TaR
qOvR3/mSawmurALPFoUckNxPUgFJLkqWHAVFFQsGPVtipw82cgVG/e3Qxgnd7DrPnTQNKLRyz+tc
L1t4fjYHwJ+yv0nMOOMlvMgGH6h+ampSErYWkcCdmlJkb57cQPxy4YR1YHIkE35keY5bxrQ6iVmE
YkaNEjXijNxU1C1+I1pkxhFXTHjKR+bfzZ80aPpjW1vfSXGq34Nvp9mqLLLJJJ8IIUKW2J7fIZZj
04keTGWQgM48l/lH5o81+XtEsPPET6L5O0q2t4rfyrHIfrV60CKBLqMq8eCkryEKbg9SCMy8eARk
ZdS0yyEiuj3eysrOxtIbOygjtrS3RY7e3hUJHGiiiqiqAFAHQDL2tWxV2KtO6IjO7BUUEsxNAANy
STirxbz7+fyEy6X5EMd3Nuk/mGQc7SI1oRbJt9ZcfzV9MeL7rirxyZ3Nxc6lqF1Jd31x8d5qN2/O
V6fzOaBVUfZUUVR0AGKp/wCT/IHmXzkkV3Zt+jPLzn49XlQmWVR1FpCwHKv+/X+HwDZEya55Ke5+
U/KGgeVNN+oaRb8EkPO6nkJknnk7yTSn4mb8B0AA2yFuNKZPNOHiFOVaR9j3+VMkGBCkZgKqF/dn
qO5+nJhjxKLxMSOHxK3Q/wBckGBit5xxDi37zep8F+VeuSC2AhZ0flUnny+y3WuTDCQcCkS8J/iB
NfTHVfev8MkvLmhrr1OQLEFKfuyPs09hkg1ytaiiSKkx4xr9iU9j4DxySjcbsY83ateJOnl3SZvq
V3cwtcX+pbMbSwTZ7juDI7fBCvdtzUKco1OoGON9TycrSabxJf0Qwqw0gectei8uWge28v6dGrah
xZiyWrElYTJXkZ7tgzSPXlTk1a8c0spcI4j9R/H2O8AvYcnqPmLzNpnlmwhtLaJDOsYjtLJKKiRo
OK1A+ygAoBmLCBkbbiaYT5Bk1HzF+Yl3rmoymaLQ7IwRV2RLi+YMwQdF9OCHf2fL8tRhQ6/oa4by
vuYn+bX5lPr12+i6VJTRbd/3ki/8fEinrX/fan7I79fClmDDw7nmxyTvZ5TaQa9fm5GlxobeN2CX
dwSAWX7UaAAk0ao5HbM4QaDJMtO/I78y/NuitqmgTWerMp9O8sIrlY7qCWiloZ1uRbhW2rt8B+0p
oa5MCmKV3f8Azj1+b9rDJeanops7K3Qy3d7dXVrFDFGu7M8jy0oPavthtXpv5SfkDZVttS15yjuB
Jbo1Y7iRaEhoI34vAnUiRh6p2K+kRVsHPq62i348N83ustt5V8taHJb/AFaC00tgyvbKgImLj4gy
9ZGf9otUnvmvuUjfVyaADw7zd9TfUl1TyzZR6GkTAyw2o9NXBHAzMiURXCt8fAVZKqSdqZuO6qW7
RLvCpJNBBB691IlvGBV2lZVVdq7sTTEBWPa1+Y/lPTLZ3jvEvrgVEdvbHnyb3cfCB71yyOGRYmYD
E9H8wXU96iW0L6z5k1qdLmaysVMzKkO9rapwr+1RnP7IrXfL/DvboGvifS/5I/kfe6HfHzr524XP
nC5Ura2qkPDp8LAjglKqZCDQsOnQVqSbYxAFBgTb2vJIdirsVdir5c/MX8xNV876jd2qXDQ+UIJn
htLCI8ReLExT6xcsPidHYEpH9njQsCeirFJZBCsUcUTSyyukFpawrWSWVzxjijUdWY7AYq9c8k/k
XEhh1bzmyX92lJIdDTeztz29Y/8AHy6+/wAAPRTs2Umd8miU75PVxVaKg26BR0p4UwBpWuqKOQHI
jqOw+fjklIUDI1STuDsQelMkGu1N4RTnWkfievyyYQY9VJpuNVVf3Z+0p6n5nJBjxKLw8viUj0+7
Ht7HJhiYrBOkfwICVP2mOx8Kr4ZKkcVIaWFgQV+NW+wR39vnkgWBDg0cKlJv3lTUxDt718ckvLmx
rWvOvlqxE0lzqUbxwIZHaENKFRRU1EYYLTwyoarHdXv8/uc3+SdUY8fARHvPp++mAeY9QvtL0aSS
6hLeYtfkiuruzB+NTIfT07Th/wAYww5f5bM3fNVkyeLkJ6D8W7LFi8KAj1Z3o1hafl15KVJ3W51i
6Yz3s3T6xeyAcz7RxgBV8FAHXMOR8SXk5QHCHlXmvzO9oj390Td6pfSenZ2/7c077Kijag/UPozK
x4726NMpUyPzpenyL5GtfKlrKG13Vw11rV3HsS0u0zDuA5Hpp4ItMrxjjlxdByZS9Irq8p0vSL7W
dSt9Isai5uiecoFfRhWnqTH/AFa7eLEDvmxwYjOVOHnzDHGyy/zB5Pn8kxpwZpvLzMFjZvimsi37
NwQN4i32XO61o21DmbmwVuOTh6bVcW0vqdo2ta55e1ePXPL9wLfUEASaNxyguoQeXoTqOq/ysPiX
qveuM5r1Q+Y7b80UgvLxZ9N8vaZcQW8mmMV5vqjKrs0rdCkXqRpAy9WYvswRkwtXmMfSG/DAHcoT
z1onlHy7NDq13psT6ZdIbW9KALcx3KEyWt4k5Pqq6szo8obl8SsTRcw8U5S2B3/GzfMAbsKm1nWd
VYHVbhrme2JhWRqCqChVqKFXky0L0A+KuXcIHJru1mgadrvm3UZNK8qWq3bRHhf6rNUWFrXqJJB/
eSU6RJv40G+X48JO5YSnT2Tyx+QHkXTkFxr9uvmnV2H7271RFlhWvVYLQ8oIk8PhLeLHMqMQOTST
aY3P5E/k9cTNLJ5S05WbciOERL9CRlVH0DJIZF5c8meUvLUTReX9Hs9LVxSRrWFIncf5bqOT/wCy
OKpzirsVdirsVdir4W8katbX2gWkKNS4tYY4pojsw4rRW+TAVrirLvLGr6donnfy9rOqME0uzuZF
upW+zD9Yt5II527cUeQVJ+yDy7ZGYsMZiw+pgQyh1YcCKqw3BB8PHKA4yxyCDw2/mHc5IIPkh6sG
HHr4ZIMGnVACyjkw6r1A/rkwpCGMj8qneuxB6EeGSDXbUkSKC5qR/J3HzyQUx6odp3r24dOHamTD
DiUngDD1ENIu5P7Pt75IFiY9VMXCx1WNaoftk7Fvu6ZKkcVckg1myXUdc0XRZJimm6lJKboISryL
CFPo1HSvIlvYZjak8UowPI3fnXT8dzt+y4jHCeYC5w4RH+jxE+qu8VQ8zbEPNvmPUz5yh8rXFxae
U/JlhO0k8bQoqSPbOrwGV2HAF6eojOfTLAVDbK2slnNyhVVyH4/Q9BqNFWKGUEz4t5Su9+7+3qh/
Jqwec/zGk1oulzpei1vPUDB0N3PyjtUqDxPoxK7HwPA5Xk9EK6l10RcrQ3nzzNBqN9d3tw4Gl2aO
I+X2fSQVZqf5dK/cMlihW3VjOSWeSfIJTWPKtzrKM19eXEuqpFMeX1Sws1aaC3UnoyzywGTvtx/Z
GbHVRGPD/SLr9PkOTN/Riwvz35hGveYNU1adz9Wd29E1K8YIto6Gu3wrX55jYocIAcyZs29T/K7y
03ljQYrm4Rm13Uo45dRmm+2qEco7dQKBQgb4iOrVPhm90+ARi89qtSZS8gym7s4rmJgievBKCksL
Dl9oUKsP2gfxzKB6FxK6h5T5q8oyeUQbqy5XGglibi3Wrtp47tyqS8Neo3KeNOmBn09eqPJ22l1d
+mX1Jr5M84aNo8V5Y6xG36D1ZQZr+3Du8MgWiSER8m4laUdBVCAem66jVYDKpR5h2uLIBsUg1j8z
b7zPqJsLO1uPMOoRD0LeDToTMskdKGVo4+Xpl/2weh2rxFchj0xHJlLKzryL+QPmjWYYZPOkh0TQ
1G3l+zl5Xc4qdrm5Q0iSlP3cRJptyWmZUcQG/VqM3v8Ao2i6TommQaXpFpFY6fbLwgtYFCIo+Q7k
7k9SdzlrBG4q7FXYq7FXYq7FXYq7FXxX+cv5R6/+XfmGXXNKBPlu6nZrG8jBItzMxb6pcr/LX4Ub
owp0bFUFoOv2es2zRsojukWlzatvsdqrX7SH/bxV6F+XX5m3fk1o9J1dpLvykSFguGJeXTR0pvVn
th4DeMdKrsK5QtrnC30FDLFPDHcQSK8Eih4pkIZWVhVWUjYgjpTIBx6c7BgRHse47nJBB8kOA/Kq
7U6nsMkGtpytCYh8Q+0fD3XJhT5IXkwao3J7da5INdukijUF6E06xV6fM+GSCkBCtPJy5bUG3H9m
nhTJgMDIrWtw6+qp4RftV3I9h45IFBj16JXrFhZ6jbC2kVo1RxJFMjcZkkX7Lq46EVyOXCJij/Y3
6XWzwSuFURRB3Eh3FjXmPzd5i06z1A3cGmeYrPRLdZrm91O0+KIyGkULENxLuSACNtwWI3prMsZm
Rj6ZV1I/Fn3U9TpcuGOIZby4uO6jGV3XM2RsL23JKyzvLvTPy9u724txa6hrk7SysEMAaS4ADGOE
hWiijhQRxBqNxUFgCcw5nin7nHMjRJvfv5vMnVNV1e0tJUc+X7O5R9evlQvCrIPVhtGIBq0rqOY7
L16jM7BwwInPaLjyw5MwMMW865d/u8+vwZy+tvcXPmLUjE9udO0W5tdNRz+8Z7lUnuJGQVMYRY7Y
/F15L4jHW6jxTEVQvqw0+i/L2OISlW9cge6+vvGzxnStF1HX9Xs9G060e+muHElxbxgE/VYSJLhj
XYDgOIr+0QOpyePndWpAOxPDfXu+W76N0m/ttWsfVBMccbGMvIOLxSL1idfEeHb5ZucOaMxxR+X6
3Q6rRzwS4J13gjcEHkQeoKrLM1o5jhXj/MzUJcfq4n2y8C+bik8OwQ8lqtwC1uvJW2kiO/Gvz/Z9
/vyYNc2NXyeXeavKC+Wq3uixtcaOWaS/so9xaV3Mlsv2mirUug+z1XaozBz6b+KIdppdZ/DI796W
2V5dQXdprOi3rWmo237yyv4DXZqEqw+zJE9PiRtjmC7J9H/ld+atj5ztpLO7iXT/ADLZIGvtO5VV
0rx+s2zHd4WP+yQ/C3YsqzzFXYq7FXYq7FXYq7FXYq7FUNqemafqmn3Gnajbx3djdoYrm2lUMjow
oVYHFXx3+dH5I6v+XuonX9AaWXys0gMNyDzlsHc0EM9alomPwpIf9V96FlUo8u+ZYNWjMEoEV/Gt
ZYf2WHTnHXqviO2Ks78i/mJf+SZha3IlvPKUjfvLdavLp5PWWBdy0Pd4h0+0ndTGUbasmO30LaXV
pd2kF7bTLNa3CLLbyxEMro45KysNqEGoOQDjEVzXSN6ooNm/lHQ/25IMSbQ4V+VQePHqx2pkwwpp
2Ug+js/7W1CR/k5IKfJCAuHBT7XYdcmGsLpI4gC4AZxu0QOy+/vhCSAg2mk5867jananhTwywBqM
i29ujL626JSrJ1b/AGPt74QUmPVi9zNp9jJrena5avJ5V8wxlbmeFfUaBzGqMZBQkqeAINKA9swM
0DAyu+GW9joar9HP5vRaDKM0cfBXi4hw8Ev442TtfM7kGPMjkw+f8rdNvUigP5l+vocRrDb3GoSq
0aEABRGW9QALtT1MweHqJw9+39juRDH/ABYM1/zd6+dcSb3a6LbeT4vJ3ku2a+022Zp77UGUxRyy
BxIyx1+0zMgHf+OX8BnjMIevqT023oHqTy22DjDNDDqBlzVh2qMRzHEOHikOYAuzxUSeQUrjytrG
r2ety+Q9S02UeYg36YsNWWX9JWrv8LxwsJY4zGHZiqsooT1bDkiMh4o7105fPucPHh8KoZTwDpKu
IEd4I5j3KX5f/lbJ5C1SLzH5k1SCyktiXkYyo1xPQH9zGiEqsZ7ipJ/EVRxZOITmRCMXZS1GmjiO
HBGWXJPrX6Px3kprZGW8vtS1pYzDZalOHtI2HE8EXjyKj7PPqPbfN3oRfFKqEjt8BV/F5TtgiIx4
rEpY4nircAmRlw/5t0fO02jVWgAujwh/3VIftDx4juMzTz2dQOW/JRuJ57dxHEBFGNxT4uY8Wb9o
H7slEAoJI5KLW4uRzthRh/exE04/5QJ/Z/Vkwa5savk8182+T/0K76l5eha4tWZpNT02L7K13Mto
lNz3dP2v2RXrhajS36oj4Oy0usr0yPxSS2uBM1nq2l3bQXds3r6dqNuRzifpVT0IP2XRtmGzDNc7
V9E/lX+blv5qX9D6ysVh5pgTk1uppFdxqN57Xlv/AK8e7J7ijFV6PirsVdirsVdirsVdirsVdiql
d2lreWs1pdwpcWtwjRTwSqHR0ccWVlaoIINCDir5E/O/8hL/AMl3EnmXyqsj+WFb1XSNi0+msdup
qzwb7Ma8Rs22+KsW8teaI9TUWtzSLUUWpA2SUD9qP+K9vlirNvJPnXUvI943oxSXvlu5fne6Yhq8
DE/FPag/8PF0bqKHqCGrJj4ve+htO1DT9R0+31GznW5s7pFlt5Izs6MKg+3y65EOIRXNWdvW2Ozj
7I7H+3JhiTaH9Nq8ieAU7sfH2yQYU6Rw4YRfC5+14sPb+mSCk3yQaiTmPTrzHSmTa972XOIt2jCt
MN2UfZHiVHfJBJrpzQTSyep6nI8/HJtVm7XvbxsPVIKmnJoRTkfceAwgpMRzSyW1sGm9U2cHIGu8
aGvzJFT9OPhRPRmNXlAoSIHdZVzarKnqw0SJf7wHon9RlgNNJje6VajpOiXTVlso5n25TutJGp25
LQgfTleTS48huQBLlaftLPgHDinKMe7p8uSHg8qaHE4nsbJC9RVXrK6NWtQXLH/ZYw0uKJvhF9/9
rPN2pqsseEzlwnoNh8hSYrJHa1BpM7U5p1jFP1nMqrdcCI+aGvFZv34cyRttyPVT/K3hk49zCXe6
JVEFLv4bc7x/z18UHh412wnntzSOW/JSupp4GVYf3UX2oyhqGH8xb9r/AD2yUQDzRIkclL6sLwF7
dQsi7zR9FA/mU+HtkuKuaKvk8982+UBZSyar5bi9V3Yyapp6/CsxPWW2X9mXxGwf2briajSmXqjz
7nP0us4fTLl3schmt76KC8s52SWFxLaXcJKTQTIdnRvtI6n+hzVu4Be//lP+cQ154/LvmZorbzOA
fqs6DhBqCKKl4gdkmUCskX+yX4ahVXqmKuxV2KuxV2KuxV2KuxV2KrZYo5Y3ilQSRyAq6MAVZSKE
EHqDir5P/Pb/AJx9n8uPN5q8mwOdBSs9/p8JPq2DDczwftGDuyjePr9j7KrA/LHmtL7hZXrBb6n7
uUUCTADqvYPTqv0j2VZp5U816r5L1CS806JrzSbpueqaMrU5E7G4tuXwpMP2l6SDr8VDgpqyY+L3
voPRdb0jWtKt9V024S7s7pecToenirjqrKdmU7g7HCHClGuaKd/W2Y0cfZPQfLJBiTaiYiPic8AO
/eo8BkwxrvWySCZSifC57bfH8z44Qgm0IqSF/gqGXcnpSnie2WNYBXsYzUxUNwOppsfEoPHCEmun
NAF358wTzrWveuTDVas8EbfGy/vgKtbqevv7fLEFkYj49yCe5l5hgePH7Kj7IHhTLAGsyLZtlmT1
1/dRivqLQmlP5PH+GEGtl4b3Q5ujGaW44J3JoS3+t7e2T4e9jxVyU3gE4524+L9uLuvuK/s/qyQN
c0cN8lqyx2hPGk0h2YHeOnWn+Vhq0A8Pmh7tDJW5Ri6Mfiqash8G/gcnHuRIXu6JUihK3n9y+6RD
+8r/ADL/AC/T1wnc7KNuajeSTxlPTISD7UBjqFNO/jy8a75KIBRIlatt9dUyIPTkB/e7Hgdq1Wg6
/wCT92S4uFatgXnDynSZtW8twqL2pbULVjwW8H8wFeMco/Zb9r9o9KYuo0nH6h9Tm6XWcHpP0sXh
ntNTthJEzq0cgIIJint54jUdKPFLG30g5qSKdyDb3X8p/wA5Hv5oPLPm6dV1pz6emaoVEcV94I/H
4I7gfy7B+q7/AAgJewYq7FXYq7FXYq7FXYq7FXYq4gEUO4PUYq+Xvz2/5x1axM/mryPan6kKz6lo
kFQ8LA8jcWaj9nu0a/Z6ptsFXlnlXzat0I7DUHrckUt7nbjMOwNNg/6+3hirNPLvmDV/KWqyapo6
fWLe5IOqaSW4JcAbepGT8Mcy9m6N0bsQteTGJB7/AOXvMeja9pMOq6ZMLiGUUZDs0Ug+1FKvVZE6
MuSDgSjw80e7iX4ZDR/2X/gcmGF3zUGh4bzHiOyj7R+X9ckGJjXNqSX1xw+w37Irs3+sfH3yQ2QT
aEEMhY/s8PtMdgvzydsKKo0iPUQkC4/35Shf/V8D+vEJu+XNL6PzHGvOu1OtcsaVd44mNSoe6AqY
gfhJ+jv7DEfYzIHxQEk8xkEhYh1+zTansBlgDUZG1T6ss6et/dDcugFeVOpjH+dMN1snhvdCtdsn
wwD0kHhuW/1j3+XTJiPew4u5a0AugXgAVxvLF0A/yhXt+rDdc1q+SktxHaN+5pLL0ZzXhTwA7/M5
Kr5oBrko3EfrA3ERLAn94hNWUn9Y8Dk4mtkEXu6P07ZCl0OYfc2w6g/zE/snDz5KNuahembkkges
P+6GT4VFO1B9kjvk4UiS1YTfk+mtLobv2Vx4+zfrxvh9y1fvYZ5v8pJJI2paFxXWlp9bDVSG6RAf
3bDs4/ZlIr2Pw5j6jS+JuNi5em1fhmjvFiUUtpqlm6ujABjHPA4KyRSxn4lam6ujDqPmM00okGi7
yMgRYez/AJS/nHcLcWvlTzfcNNcTMIdG12Sn78nZbe6YbCfsj9JOh+P7QS9uxV2KuxV2KuxV2Kux
V2KuxV2KvnD8+v8AnHb619Y81eSbQfWTyl1bQ4RT1T9pri1UdJf5ox9vqvxfaVeK+VvN3P07DUpC
zseNteN+2egSQ9n7A9/n1VZro+r6v5b1Y6zolGmcBb/T3bjDeRr+y3UJKv8AuuSm3Q1XCC15MYkH
vHlfzbonmPSV1HS5PUYH07mGQcZLeYD4opEO4Za/IjcVBByYdfOPAaTQyCT4ZTv+zIeo+ftkw13f
NSeERH9917IDufp7DJAsTGuaySb6wODngw/uz+z8jX9eSApBlaGNvJU8/wB2qmjM21Pl4nJgsOEr
3nWUFIyUlIp6hoC/sT2xASZXyS/hIZOCqfUrsB1rljVRRDCFjvxkvKdP2GPv4t+BxH2M9vil8ksx
l5sx9RT16EU/VTLQGkk2qm2WdRK49NyCTGtKyAd0Hb/OmN0z4b3Qct3IKCL90imqqviO5Pc5MRaz
LubFv9cBkiASRf70UIX/AFlp+r7sN8KeHiUBdLbN/ou7j7UzDc+wHYfjk+G+bHirkozRJKjTw7U3
li7r7jxX9WSBrYoIvcNW6+ihe42t5B/dH7T+BUdv9bCd+XNRtzU71nEamDazJ+ALt8Q/n78v8xko
+fNZfYoSywzxM8zrFOgqZWIVXA/mJ2De/fD9PuUb+95Sl1Ff63quq2yFLG7eJbdmBUy+jGEabiRs
H6KT1ABzSarIJzJDv9JjlDGAUJ5ovbS00K7kuHCVjZYd6MZaEx8ab8uQqCOnXMZyX2L5L1K61Tyd
oOp3ZDXV9p1pc3DL0Mk0CO5H+ybFU5xV2KuxV2KuxV2KuxV2KuxV2KvAfz5/5x4j10XHmfyfbImt
Nyk1TSloiXtd2lj/AGVn8ez/AOtuVXz/AOWvNUtrINM1dnHFzFHcTAh42BoYp+VCCDtU/I4qzWwv
NT0TV11zRHEeoKoS4gckQ3UKmvpTAf8ACP1U+22EGmGTGJCi9y8oedNJ8yaZ9asAYryEiO/tJaet
bSkV4Edwf2XGzDcZbE263JAwNJyJA49OSpBPwt1IJ/hk2q72KyWFYD+++J/2UHT5k5IG0GNc1J5h
OOExCkf3bjYD2PtkgKYmV81BrZwSZf3aDYse/wDq+OTtjw97b3CyqYlJjYiiyGlW9nOIFKZXsgvR
mMnphTzHUdKfPLLa+E3SsXhYgVWS7AoshHwE+G/Vvc7Y/cysfFLpml9UlyfVB3J61y0NRu0S0Ect
GmHG5pX0VNDJ8/5T+vBdcuTOr580vnuJWYf7rVD8CLsFP9ffLQGsyLfpm9P7tQLoCrKNg48R2B8c
b4fcmuL3qXqR2jVjIkuB+3+wvy/mP4ZOr9yLr3qc4+t8rhD++6zRVqf9Za9vbt8slHbZB33Y5rfn
LTfL5WKWt1eXApFpcXxSyjxI/YUfzsQBkM+aMBvzbcGCWQ7cmC6kb/XLoz6u/wDoitytdJQ1gjof
hMpoPWceJHEdhmozamWTnyd1g0scfLmlGu+bbPTWa3gH1q+HWJT8Kf8AGRu3y65juSgPJHkDzl+Z
+vi3teT28bBNQ1V1ItLOJqcgg6NIV+zGDyb9o03xV92aTplppWlWel2alLSwgitrZTuRHCgRB/wK
4qisVdirsVdirsVdirsVdirsVdirsVeJfnt/zj/bebI5vMXliGO380KK3VsSI4tQUClHJ+FZgPsv
3+y3Yqq+a9A8yXOk3D6TrKyxJBIYCZwVltpEPFopg3xAKdt/s99uirNbeW/sNSh1rR5hbarAOKSG
pimiJqYJ1H242+9Tuu+EGmE4CQovavJnnzS/M1jIbVGs9TtaJqNjMQZomYbFSNmjf9hx19jUC+Jt
1mWBgaT9H5funBZSfhpuwJ8P6ZNpB6LZYktz+8pI5+yB9n5k9/lkgbUilFpxN8E5/wBRwPs+1B+z
kqYcV81FrUpvMeCdqblv9Xx+eTBQY1zae5SZPQP7pdgj1r06Bz3H6sIFbqZXshDazGRkK8Sv2idg
B4k5Ow18JVvXhNEVv9IAol0woPlv09mO+NfJlxD496WzLIjsHBDg/FXrXLQ1FXWEXSK837uQmiyb
Vl9qEj4vfBdcmYF80HPcMoMMamGMHdf2iR/McsiOrAnotkeO5Us5WO4UVLEhVcDxPQN+vD9PuX6v
e851bz7fXkrW/lj93GhKvrci1QFTQ/Voz/en/LPwf62YmfWgbRdhp9ATvPbySGT6jYfWtQupAss7
ereXspHORj3Y7f7FRsOgGayUiTZdrGIAoMO1vzld3pNvpvO3tnPATAETykmgCAbpXt+18sDJ6p+U
/wDzi9qmsLDqvnVZdJ0hqSRaOh4Xk4O/79usCnuv94f8g4q+pdH0XSdF02DTNJtIrHT7ZeMFtAoR
FHU7DuTuT1J3OKozFXYq7FXYq7FXYq7FXYq7FXYq7FXYq7FXkH54fkPY+dreTWtDSKz82xKKu3wR
XqKKCKcjo4Aoknb7J+H7Kr5c0rWdR8tX82ia5DLAtrIYZoZQfVtHHVWHePwp23FRirMk+sRXltrG
lXH1bVLYVtLxPiVkahMcgBpJE/cfSN8INMZwEhReyeS/zAsvMdtJbCL6hrNqo+vWTsGYqdhLEw+1
Ex7jodm3zIhK3V5sZht0ZJEzMfRKl0b9kdQfEZY0DuWzRx29DtMx+y37Ap+s5IboIEfNQ9cSVS4J
ZT9l+pU/09slXcx4r5rJLUQmtwaDqiL1YePsMkDfJBjXNTa6WZfRl+CIf3RFaJ8/EZICt0GV7FCy
W8wl9LiS5+yBvUHuKZYCGsxN0rcoFCxzssk67I53RfBXIPxfwwb9Ge3Xml916/qt69fUHWvh2p7Z
bGujXK73SbzH5u0TSbdRqMpOoupNnbRAyTz8R9ngPlTmaKO5yE8gx7ltxYZZNh83m2qXWreYZOes
sIrEENDo0LViFNx9Yfb1mr2+wPA9c1ubUyn7ncafSRx78ylWt+Z9P0lfQUeveU+C1jIHEdi7dEX8
fAZjuUkXl3yx53/MbXRY6Vbm9njIaRzWOys1bbnI+4Xavi7fsg4q+rvyp/IDyt5HEWpXfHWPM4FT
qUy/u4Ceq2sRqI9tuZq533APHFXqWKuxV2KuxV2KuxV2KuxV2KuxV2KuxV2KuxV2KuxV5f8AnR+S
OlefrA31j6dj5stkpaX5FEmUdILniCWQ/st9pDuKiqlV8mWt7rXk7V7nQtetpbc2knp3Vk45SW7d
ecdK84mB5DjsR8S+6rMaCdrXUtPuTBe259bT9QhIJQsPudGGzKdmGEGmMoiQovWvJP5iw+YY5NMu
4F07XLZeVxaBuSzxg09eByAWjJ6r1Q7HsTlY5W6rPhMOXJlkBckx8ecZ3cHYD/Kr2y0uPHuWzCO3
UND+8LfZmI2FOwHj88I3U0OSGE4IKT1dGNa/tKT3FcnXcw4u9Y1mwPJ2Cw9RL1BH+SO59skJIMPk
19bi4G3oVhIoJK1cV7/L/Jw8PVeIcuiBuozBX1CAoHIPX4SvjXwywFrIpgOu/mVJeRyad5cVbgoO
I1yTe3iNaFYV/wCPgjfuEB7ncZi5dSI/S7DT6IyFz5MRSC2svXv7ucy3EnxXeoXLAyNT+ZzQBR2U
UA7DMCUiTZdrCAiKDEtd87yzK8OmH0LcbPesKOw/4rU/Z/1jv7d8iyeh/lR/zjV5g8zelq3mj1tE
0Fz6i27Djf3YO/Kj1MKN/M45nsBUNir6s8ueWdB8taTDpGhWUVhp8H2IIhSrdC7sfid2p8TMST3O
KpnirsVdirsVdirsVdirsVdirsVdirsVdirsVdirsVdirsVed/nB+Tei/mFpXMcLLzJapTTdV470
FT6E9N3hYn5qd17gqvkN18x+QtfudC121kiaBv8ASLOvKgY7T27dHjfrt19mqMVZWVt9Qitr6znK
TRET2F/AaSRPSgZT+DKdj0Iwg0iUQRRepeSvzFbWj+htWjSy1qJeSJGf3N2i9Zoid+Q/ajO6/LMv
FMH3up1OAw5fSy+ORlPALzV9mj8f7cupxQV01vFAPUP70VoqdlPWj07+2EG0mICHN2zErP8AHEf2
Rtx8Cvhk+HuYcXekHmvzHpHlu2S4v5S31gkWcEK85p2HVY4xuSK712HcjGWURG7KGCUzUXmeta3r
3mVDDqtLTSOfKLR4m5cqV3uZR9utd0X4NhXlmBlzmXkHb4NLGHPcpLrHmDTdGiWJhzn4gQ2cVOVB
sPZF9zlDlMZ0zS/OXn/XI9L0u0e/uieS2cPw28Cf78mkb4VA/mf5KKmmKvqT8p/+ccvLvlBoNX10
x615mjIeOUqfqlq43H1eNvtMD/u1xy7qFxV7DirsVdirsVdirsVdirsVdirsVdirsVdirsVdirsV
dirsVdirsVdirCPzU/Kfy/8AmFoptrxRa6vbqTperIoMsDnfi3TnE37aE79RRqEKvjjUdO80/lz5
luNF1u2KSJR5bdDyimjYkLc2rniGDU9v5Wow2VZOpsNYsobiCUlOQltrmJiksUqH4XRh8SOh/txB
QRexek+SvzJNzJHoOtcbbWOIW3vyQqX4A+IpQARy/wA0X0rUdMzFk4ti6rUacw3jyZokzREnYodn
U9CPfMinCBp595q/MeEu1n5SaO9lJKT6lJ8VtbsOqilPXcduJ4+J7ZTPUVsObm4dEZbnYMIWIxPL
fX1091eSAtc31ywLEdTTosaCn2VAAzDlIk2XaQgIigxXXfPBYPBpJAQVD37Db/nkp6/6x2+eRZMt
/Kr/AJx580edmTV9XabRvL0xEjXkore3gO9YEkBopX/dsgp04q3ZV9a+UfJnlryjpCaV5fsY7K0U
8pOO8kr0oZJZDVpHPix/DFU6xV2KuxV2KuxV2KuxV2KuxV2KuxV2KuxV2KuxV2KuxV2KuxV2KuxV
2KuxViX5k/ln5c8/aE2m6rH6d1EGbTtSjUGe1lanxIT1VqDmh2Ye9CFXxn5h8u+bvyx80SaZq8II
k+NfTJNvdxDb1oGalHHQg7jo3Y4qyGCbS9c04OAs9tJ1Rh8SsOxHVWU4qqzWU1xCba71C/urMin1
Oe8neGngyl/iHs1ckZy72sYoA2AENqmtaXotuiyEBuNLe0iA5sBt8KigAHiaDItjEol81+dtYi0j
TbOS9uZvig0q23UAH+8mduK8Vru7kKMVfTP5Uf8AOM2ieXmg1jzd6Ws64hEkNmAWsbZhuCFYD1pB
/M4oOy1HLFXuGKuxV2KuxV2KuxV2KuxV2KuxV2KuxV2KuxV2KuxV2KuxV2KuxV2KuxV2KuxV2Kux
Vjnn3yB5c88aDJo+uQc0NWtbpKCe3lpQSwuQeLD7iNiCMVfFnnbyR5y/LDzGbK9ekU9TZajGpNpe
xDp8LfZkX9tK8l7EqQSqlkvnfX2iKgW0JpvKqMSPcBnIH01xVlv5XfkX5v8AzBnXVLh5NN0CU8pd
auVLS3A8LWNqc/DmaIO3KnHFX1z5G/L3yp5I0oad5fsxArcTdXT/AB3Fw6j7c0p3Y7mg+yP2QBti
rI8VdirsVdirsVdirsVdirsVdirsVdirsVdirsVdirsVdirsVdirsVdirsVdirsVdirsVdiqU+af
8KfoSf8AxV9R/Qm31n9J+l9V67c/X+Dr0riryfSP+hS/0uPqf6A+ucvg+s/3HKu3D6x+4rX7NPox
V7ZH6fpr6dPToOHGnHjTalO2KrsVdirsVdirsVdirsVdirsVdirsVdirsVdirsVf/9k=</xapGImg:image>
               </rdf:li>
            </rdf:Alt>
         </xap:Thumbnails>
      </rdf:Description>
      <rdf:Description rdf:about="" xmlns:xapMM="http://ns.adobe.com/xap/1.0/mm/" xmlns:stRef="http://ns.adobe.com/xap/1.0/sType/ResourceRef#">
         <xapMM:DocumentID>uuid:0830ED38A582DF11BC9A8FFFA2DA8C26</xapMM:DocumentID>
         <xapMM:InstanceID>uuid:0930ED38A582DF11BC9A8FFFA2DA8C26</xapMM:InstanceID>
         <xapMM:DerivedFrom rdf:parseType="Resource">
            <stRef:instanceID>uuid:0730ED38A582DF11BC9A8FFFA2DA8C26</stRef:instanceID>
            <stRef:documentID>uuid:0630ED38A582DF11BC9A8FFFA2DA8C26</stRef:documentID>
         </xapMM:DerivedFrom>
      </rdf:Description>
      <rdf:Description rdf:about="" xmlns:xapTPg="http://ns.adobe.com/xap/1.0/t/pg/" xmlns:stDim="http://ns.adobe.com/xap/1.0/sType/Dimensions#" xmlns:xapG="http://ns.adobe.com/xap/1.0/g/">
         <xapTPg:MaxPageSize rdf:parseType="Resource">
            <stDim:w>800.000000</stDim:w>
            <stDim:h>600.000000</stDim:h>
            <stDim:unit>Pixels</stDim:unit>
         </xapTPg:MaxPageSize>
         <xapTPg:NPages>1</xapTPg:NPages>
         <xapTPg:HasVisibleTransparency>True</xapTPg:HasVisibleTransparency>
         <xapTPg:HasVisibleOverprint>False</xapTPg:HasVisibleOverprint>
         <xapTPg:PlateNames>
            <rdf:Seq>
               <rdf:li>Cyan</rdf:li>
               <rdf:li>Magenta</rdf:li>
               <rdf:li>Yellow</rdf:li>
               <rdf:li>Black</rdf:li>
            </rdf:Seq>
         </xapTPg:PlateNames>
         <xapTPg:SwatchGroups>
            <rdf:Seq>
               <rdf:li rdf:parseType="Resource">
                  <xapG:groupName>Default Swatch Group</xapG:groupName>
                  <xapG:groupType>0</xapG:groupType>
               </rdf:li>
            </rdf:Seq>
         </xapTPg:SwatchGroups>
      </rdf:Description>
   </rdf:RDF>
</x:xmpmeta>
                                                                                                    
                                                                                                    
                                                                                                    
                                                                                                    
                                                                                                    
                                                                                                    
                                                                                                    
                                                                                                    
                                                                                                    
                                                                                                    
                                                                                                    
                                                                                                    
                                                                                                    
                                                                                                    
                                                                                                    
                                                                                                    
                                                                                                    
                                                                                                    
                                                                                                    
                                                                                                    
                           
<?xpacket end="w"?>
	</metadata>
<path id="path4430" sodipodi:nodetypes="cccccsc" fill="#232323" stroke="#000000" d="M7.235,70.932  C6.6,73.58,7.419,76.163,8.706,77.318L115.608,177.89c3.498,3.227,8.917,3.288,12.027,1.205l78.528-53.724  c2.425-1.721,4.379-3.465,4.253-5.859l-0.206-3.922"/>
<path id="path3222" sodipodi:nodetypes="ccccccccc" fill="#686868" stroke="#000000" d="M206.064,120.471  c3.66-2.596,6.473-5.264,1.884-10.08L100.43,9.753c-4.875-5.036-8.759-3.673-13.182-0.656L10.006,61.539  c-4.315,3.573-3.302,9.286-1.4,10.879l106.902,100.571c3.498,3.228,8.917,3.289,12.027,1.205L206.064,120.471z"/>
<path id="path3252" sodipodi:nodetypes="ccccccccc" fill="#808080" stroke="#000000" stroke-width="0.8813" d="M194.967,118.803  c2.813-2.014,5.35-5.025,0.086-9.809l-94.173-88.417c-4.326-4.406-8.346-5.153-12.078-2.712L22.043,63.329  c-3.83,3.128-4.177,7.234-0.684,10.375l94.932,89.319c3.063,2.91,6.557,4.729,11.848,1.088L194.967,118.803z"/>
<path id="path4432" sodipodi:nodetypes="cc" fill="none" stroke="#000000" d="M6.972,67.677l0.065,5.877"/>
<path id="path4434" sodipodi:nodetypes="cc" fill="none" stroke="#000000" d="M210.295,114.47l0.072,5.561"/>
<linearGradient id="path8312_1_" gradientUnits="userSpaceOnUse" x1="126" y1="-28.7339" x2="306.0546" y2="-28.7339" gradientTransform="matrix(1 0 0 -1 -107.4995 62.5801)">
	<stop offset="0" style="stop-color:#DCFDDE"/>
	<stop offset="1" style="stop-color:#00A9D9"/>
</linearGradient>
<path id="path8312" sodipodi:nodetypes="ccccccccc" fill="url(#path8312_1_)" stroke="#000000" stroke-width="0.8813" d="  M194.967,118.803c2.813-2.014,5.35-5.025,0.086-9.809l-94.173-88.417c-4.326-4.406-8.346-5.153-12.078-2.712L22.043,63.329  c-3.831,3.128-4.177,7.235-0.684,10.375l94.932,89.318c3.063,2.911,6.557,4.729,11.848,1.089L194.967,118.803z"/>
<g id="Grid" opacity="0.5">
	<path id="path3256" sodipodi:nodetypes="cc" fill="none" stroke="#FFFFFF" d="M22.731,74.855l78.897-53.726"/>
	<path id="path3258" sodipodi:nodetypes="cc" fill="none" stroke="#FFFFFF" d="M30.783,82.119l78.661-53.896"/>
	<path id="path3260" sodipodi:nodetypes="cc" fill="none" stroke="#FFFFFF" d="M37.669,88.721l78.51-53.66"/>
	<path id="path3262" sodipodi:nodetypes="cc" fill="none" stroke="#FFFFFF" d="M45.143,95.921l78.908-53.687"/>
	<path id="path3264" sodipodi:nodetypes="cc" fill="none" stroke="#FFFFFF" d="M52.816,102.838L131.432,49.5"/>
	<path id="path3266" sodipodi:nodetypes="cc" fill="none" stroke="#FFFFFF" d="M60.274,109.928l78.606-53.596"/>
	<path id="path3268" sodipodi:nodetypes="cc" fill="none" stroke="#FFFFFF" d="M67.716,116.909l78.772-53.474"/>
	<path id="path3270" sodipodi:nodetypes="cc" fill="none" stroke="#FFFFFF" d="M75.292,123.909l78.515-53.406"/>
	<path id="path3272" sodipodi:nodetypes="cc" fill="none" stroke="#FFFFFF" d="M90.248,138.187l78.516-53.509"/>
	<path id="path3274" sodipodi:nodetypes="cc" fill="none" stroke="#FFFFFF" d="M97.773,145.203l78.59-53.447"/>
	<path id="path3276" sodipodi:nodetypes="cc" fill="none" stroke="#FFFFFF" d="M105.194,152.176l78.509-53.447"/>
	<path id="path3278" sodipodi:nodetypes="cc" fill="none" stroke="#FFFFFF" d="M130.379,162.728L23.475,62.335"/>
	<path id="path3280" sodipodi:nodetypes="cc" fill="none" stroke="#FFFFFF" d="M48.996,45.189l106.42,100.221"/>
	<path id="path3282" sodipodi:nodetypes="cc" fill="none" stroke="#FFFFFF" d="M138.475,156.965L31.855,56.658"/>
	<path id="path3284" sodipodi:nodetypes="cc" fill="none" stroke="#FFFFFF" d="M146.984,151.164L40.346,51.137"/>
	<path id="path3286" sodipodi:nodetypes="cc" fill="none" stroke="#FFFFFF" d="M163.854,139.749L57.442,39.586"/>
	<path id="path3288" sodipodi:nodetypes="cc" fill="none" stroke="#FFFFFF" d="M180.797,128.332L74.084,27.974"/>
	<path id="path3290" sodipodi:nodetypes="cc" fill="none" stroke="#FFFFFF" d="M172.502,133.861L66.025,33.597"/>
	<path id="path3357" sodipodi:nodetypes="cc" fill="none" stroke="#FFFFFF" d="M82.637,131.112l78.5-53.774"/>
	<path id="path3359" sodipodi:nodetypes="cc" fill="none" stroke="#FFFFFF" d="M113.618,160.533l78.454-53.904"/>
	<path id="path3385" sodipodi:nodetypes="cc" fill="none" stroke="#FFFFFF" d="M188.531,123.027L81.886,22.597"/>
	<path id="path3387" sodipodi:nodetypes="cc" fill="none" stroke="#FFFFFF" d="M195.139,118.627L88.426,18.269"/>
</g>
<g id="g16603b" transform="matrix(0.8859556,0,0,0.8859556,25.093096,-136.74887)">
	
		<path id="path16605" sodipodi:cy="240.48628" sodipodi:ry="4.8018188" sodipodi:type="arc" sodipodi:rx="7.3874135" sodipodi:cx="72.396652" fill="#FF2323" stroke="#FFFFFF" stroke-width="1.9" stroke-linecap="round" d="   M123.521,248.535c0.002,2.7-3.364,4.89-7.517,4.89c-4.153,0.001-7.522-2.186-7.523-4.886c0-0.001,0-0.002,0-0.004   c-0.002-2.699,3.364-4.889,7.517-4.89c4.153-0.001,7.521,2.186,7.523,4.886C123.521,248.533,123.521,248.534,123.521,248.535z"/>
	
		<path id="path16607" sodipodi:cy="240.48628" sodipodi:ry="4.8018188" sodipodi:type="arc" sodipodi:rx="7.3874135" sodipodi:cx="72.396652" fill="none" stroke="#FF0000" stroke-width="1.2554" stroke-linecap="round" d="   M127.003,248.718c0.002,3.916-4.88,7.093-10.907,7.094c-6.025,0.002-10.911-3.172-10.914-7.089c0-0.002,0-0.004,0-0.006   c-0.002-3.917,4.881-7.093,10.906-7.095c6.026-0.002,10.912,3.172,10.915,7.089C127.003,248.714,127.003,248.716,127.003,248.718z"/>
</g>
<g id="g16603_1_" transform="matrix(0.8859556,0,0,0.8859556,25.093096,-136.74887)">
	
		<path id="path16605_1_" sodipodi:cy="240.48628" sodipodi:ry="4.8018188" sodipodi:type="arc" sodipodi:rx="7.3874135" sodipodi:cx="72.396652" fill="#FF2323" stroke="#FFFFFF" stroke-width="1.9" stroke-linecap="round" d="   M102.075,247.406c0.002,2.7-3.364,4.89-7.517,4.89c-4.153,0.001-7.522-2.186-7.523-4.886c0-0.001,0-0.002,0-0.004   c-0.002-2.699,3.364-4.889,7.517-4.89c4.153-0.001,7.521,2.186,7.523,4.886C102.075,247.404,102.075,247.405,102.075,247.406z"/>
	
		<path id="path16607_1_" sodipodi:cy="240.48628" sodipodi:ry="4.8018188" sodipodi:type="arc" sodipodi:rx="7.3874135" sodipodi:cx="72.396652" fill="none" stroke="#FF0000" stroke-width="1.2554" stroke-linecap="round" d="   M105.557,247.589c0.002,3.916-4.88,7.093-10.906,7.094c-6.026,0.002-10.912-3.172-10.915-7.089c0-0.002,0-0.004,0-0.005   c-0.002-3.917,4.881-7.093,10.906-7.095c6.026-0.002,10.912,3.172,10.915,7.089C105.557,247.586,105.557,247.587,105.557,247.589z"/>
</g>
<g id="g16081" transform="matrix(0.8859556,0,0,0.8859556,19.668101,-147.85753)">
	
		<path id="path14139" sodipodi:cy="240.48628" sodipodi:ry="4.8018188" sodipodi:type="arc" sodipodi:rx="7.3874135" sodipodi:cx="72.396652" fill="#FF2323" stroke="#FFFFFF" stroke-width="1.9" stroke-linecap="round" d="   M102.076,247.407c0.002,2.699-3.364,4.889-7.517,4.89s-7.522-2.187-7.524-4.886c0-0.002,0-0.003,0-0.004   c-0.002-2.699,3.364-4.889,7.517-4.89c4.153-0.001,7.522,2.187,7.524,4.886C102.076,247.404,102.076,247.406,102.076,247.407z"/>
	
		<path id="path14141" sodipodi:cy="240.48628" sodipodi:ry="4.8018188" sodipodi:type="arc" sodipodi:rx="7.3874135" sodipodi:cx="72.396652" fill="none" stroke="#FF0000" stroke-width="1.2554" stroke-linecap="round" d="   M105.558,247.589c0.002,3.917-4.881,7.093-10.906,7.095c-6.026,0.001-10.912-3.172-10.915-7.089c0-0.002,0-0.004,0-0.006   c-0.002-3.917,4.881-7.093,10.906-7.095c6.026-0.001,10.912,3.173,10.915,7.089C105.558,247.585,105.558,247.587,105.558,247.589z"/>
</g>
<g id="g1680" transform="matrix(-0.2444154,0.2892631,-0.2892631,-0.2444154,489.45536,150.84475)">
	<path id="rect1424" fill="#FFDAA6" d="M516.27,891.328c-0.022-0.084-0.066-0.172-0.09-0.256c-0.033-0.112-0.055-0.233-0.092-0.344   c-0.018-0.054-0.025-0.107-0.043-0.161c-0.019-0.053-0.025-0.109-0.044-0.162c-1.204-3.334-4.072-6.517-7.586-9.485   c-7.785-6.577-19.174-4.894-30.438-1.522c-3.826,1.145-9.254,2.028-13.885,2.4c-1.722,2.733-4.035,4.09-3.172,9.488   c-1.605-5.946-1.1-7.911,0.494-9.464c-8.313,0.418-17.037,0.126-24.284,0.271c-0.003,0.001-0.018,0.005-0.021,0.006   c-0.011-0.003-0.061-0.023-0.071-0.024c-0.003,0.001-0.018,0.005-0.021,0.006c-0.591,0.076-1.176,0.145-1.767,0.192   c-17.852,1.435-33.05,17.994-44.737,11.532c-11.939-6.6-17.891-2.225-36.885-9.018c-23.618-8.443-36.987,0.922-52.693-15.087   c2.618,3.382,5.192,6.105,12.658,10.961c17.136,11.148,17.108,5.48,38.684,13.302c21.555,7.812,25.201,15.731,45.444,19.713   c20.336,4.002,20.03,0.637,33.532-0.02c13.502-0.659,10.932-0.417,21.233-1.966c10.301-1.548,8.582-0.43,20.456-3.49   c11.875-3.059,16.905-5.121,27.389-7.836c9.173-2.377,13.314-1.098,14.551-1.691c0.021-0.011,0.055-0.029,0.075-0.041   c0.019-0.013,0.053-0.049,0.07-0.063c0.009-0.007,0.028-0.023,0.035-0.031c0.009-0.007,0.028-0.023,0.035-0.031   c0.008-0.008,0.028-0.022,0.036-0.031c0.012-0.017,0.032-0.058,0.043-0.077c0.003-0.004,0.013-0.021,0.015-0.026   c0.003-0.004,0.014-0.02,0.016-0.025c0.007-0.016,0.023-0.035,0.029-0.052c0.002,0,0.014-0.003,0.02-0.005   c-0.001-0.003-0.01-0.037-0.01-0.04c-0.001-0.003-0.005-0.018-0.005-0.021c0.003-0.006,0.031-0.025,0.035-0.031   c-0.001-0.003-0.01-0.037-0.01-0.04c0.003-0.011,0.008-0.035,0.009-0.047c-0.001-0.001-0.01-0.034-0.011-0.039   c-0.007-0.008-0.023-0.028-0.03-0.035c-0.002-0.002-0.012-0.038-0.011-0.041c-0.001-0.001-0.005-0.016-0.006-0.019   c-0.01-0.012-0.047-0.04-0.056-0.05c-0.002-0.002-0.005-0.018-0.006-0.021c-0.021-0.025-0.049-0.068-0.067-0.09   c-0.024-0.02-0.063-0.047-0.083-0.064c-1.48-1.295-8.679-2.812-12.374-3.029c5.463-0.481,10.187-0.137,13.537,1.872   C516.734,894.817,516.733,893.055,516.27,891.328z M490.309,852.86c-1.132-3.519-4.702-6.437-9.139-8.896   c-8.169-4.528-18.545-1.123-28.563,3.777c-3.402,1.666-8.33,3.365-12.59,4.48c-1.233,2.74-3.165,4.396-1.535,9.137   c-2.403-5.13-2.213-6.982-0.934-8.651c-11.035-0.602-30.687,1.851-37.575,5.133c-0.004,0.003-0.015,0.002-0.021,0.005   c-0.726,0.31-2.396-0.116-4.745-0.981c-1.677,2.953-2.958,6.193-4.028,9.764c0.29-3.786,1.034-7.247,2.366-10.399   c-7.761-3.101-20.721-9.574-31.135-12.443c-5.078-1.867-9.63,0.372-14.198,2.611c2.446-3.12,5.603-5.599,11.236-5.909   c-3.438-2.659-7.403-4.886-12.157-6.422c-4.877-0.812-9.488-1.071-13.331,0.67c2.853-2.313,6.826-2.544,10.546-3.303   c-2.133-1.54-4.264-3.051-8.232-4.138c-7.015-0.669-13.168,1.197-19.592,4.775c1.681-1.467,3.374-2.709,5.148-3.739   c-12.575-10.708-22.822-20.587-28.693-28.861c7.169,7.544,16.886,17.281,26.125,22.836c-0.18-4.51-3.726-7.642-7.677-10.306   c3.898-0.14,6.925,2.264,10.834,5.042l6.668,6.138c0.123,0.153,0.277,0.292,0.407,0.388c0.095,0.068,0.215,0.136,0.308,0.179   c0.01,0.005,0.033,0.019,0.051,0.028c0.004,0.003,0.047,0.028,0.051,0.031c0.004,0,0.018-0.005,0.02-0.007   c0.002-0.002,0.018-0.002,0.021-0.004c0.066,0.018,0.159,0.034,0.229,0.046c0.01,0.002,0.035,0.008,0.045,0.009   c0.004,0,0.038-0.009,0.04-0.01s0.018-0.005,0.021-0.005c0.026-0.002,0.086,0.015,0.112,0.013c0.023-0.006,0.096-0.027,0.12-0.034   c0.002-0.002,0.018-0.005,0.021-0.005c0.001-0.001,0.015-0.006,0.019-0.006c0.017-0.011,0.053-0.051,0.07-0.063   c0.001-0.001,0.037-0.011,0.04-0.01c1.373-0.637,2.301-4.007,1.399-6.175l-11.958-20.463c-6.138-2.961-12.109-3.884-18.106-4.222   c1.214,1.044,2.274,2.19,3.22,3.447c0.555,1.06,1.29,2.074,1.798,3.157c0.052,0.111,0.104,0.213,0.153,0.327   c0.544,1.293,0.741,2.693,0.172,4.436c-2.28-5.744-6.151-9.012-10.518-11.537c-0.012-0.007-0.015-0.008-0.026-0.015   c-5.852-0.113-11.762-0.058-17.876-1.185c-8.456-1.559-13.051-6.19-15.393-8.802c7.11,4.327,20.466,7.804,32.241,8.814   c16.885,1.445,15.406-1.228,33.21,8.876c13.813,7.839,29.199,11.147,45.37,12.569c14.355,1.263,15.024-4.015,17.747-6.897   c1.591-1.679,2.796-3.136,3.726-6.133c1.299-5.392,2.858-13.265-9.497-20.253c-17.147-9.697-27.87-10.863-55.789-19.368   c-27.917-8.504-16.379-24.053-54.489-16.382c4.748-6.433,21.616-8.059,24.424-7.346c-0.966-6.496-17.504-4.811-24.591-0.947   c5.036-3.817,11.563-6.448,18.412-6.037c-3.972-2.198-19.682-3.025-32.843-3.626c-3.113-0.144-10.565,0.622-20.396,7.997   c-0.005-0.006-0.021-0.023-0.031-0.035s-0.05-0.042-0.057-0.05c-0.008-0.01-0.028-0.047-0.036-0.054   c-0.003-0.008-0.006-0.022-0.006-0.022c-0.007-0.008-0.03-0.049-0.036-0.057c0,0-0.005-0.016-0.006-0.019   c-0.002-0.015-0.013-0.05-0.016-0.061c-0.001-0.003-0.003-0.014-0.005-0.02c0-0.003-0.004-0.017-0.006-0.022   c0.004-0.01,0.001-0.055,0.005-0.065c-0.001-0.003-0.004-0.017-0.006-0.022c-0.059-1.932,5.995-8.33,14.89-10.529   c-9.51-9.277-75.621-4.894-110.451-5.045c7.422,27.685,17.999,53.677,31.238,77.716c15.15,3.151,32.559,7.431,53.483,13.511   c31.833,9.254,32.947,23.042,53.6,41.67c4.634,4.18,7.883,7.458,10.317,10.141c0.001-0.001,0.014-0.005,0.021-0.005   c-1.913-2.786-3.851-6.016-5.891-9.701c7.03,11.085,12.452,15.015,18.002,19.511c6.656,5.392,8.282,4.369,29.466,7.671   c8.575,1.336,15.141,2.892,20.455,4.262c8.562,2.205,19.716,2.443,26.117,4.866c18.424,6.977,21.16,3.923,32.419-1.107   c8.432-3.769,11.961-4.607,18.865-5.792c9.493-1.63,8.656-1.674,20.003-6.227c10.43-4.184,13.61-7.692,22.994-11.877   c8.724-3.891,12.732-3.194,13.48-4.154c0.018-0.025,0.046-0.076,0.059-0.102c0.008-0.014,0.018-0.057,0.025-0.072   c0.002-0.01,0.022-0.061,0.024-0.071c0.001-0.011,0.006-0.035,0.008-0.046c-0.003-0.001-0.028-0.033-0.031-0.035   c-0.001-0.006-0.005-0.018-0.006-0.021c0.003-0.006,0.011-0.019,0.015-0.026c-0.001-0.003-0.01-0.037-0.01-0.04   c-0.008-0.007-0.024-0.027-0.031-0.035c-0.002-0.002-0.01-0.038-0.011-0.039c-0.001-0.003-0.005-0.018-0.005-0.021   c-0.004-0.002-0.042-0.008-0.046-0.01c-0.003-0.001-0.028-0.032-0.031-0.035c-0.007-0.008-0.024-0.027-0.031-0.035   c-0.007-0.009-0.049-0.042-0.057-0.05c-1.411-0.963-8.735-1.073-12.2-0.606c5.099-1.391,9.594-1.871,13.037-0.636   C490.788,855.269,490.686,854.034,490.309,852.86z M501.155,911.921c-0.599-1.79-1.894-3.724-4.048-5.974   c-0.706-0.737-1.508-1.388-2.392-1.98l-0.267-0.188c-10.281,3.476-23.755,8.695-40.289,9.951   c-26.706,2.029-40.013,5.064-48.587,3.709c-9.997-1.579-16.721-2.367-30.225-9.612c6.44,7.661,12.358,14.915,16.954,16.893   c7.059,3.036,11.004,0.182,35.194,1.98c11.377,0.845,9.211,0.576,17.992,0.159c8.78-0.419,7.255,0.396,17.487-1.157   c10.231-1.552,14.64-2.861,23.675-4.243c8.548-1.308,11.804,0.449,12.601-0.323c0.004-0.003,0.012-0.022,0.015-0.026   c0.009-0.009,0.027-0.02,0.035-0.031c0.016-0.023,0.046-0.076,0.059-0.102c0.002-0.003,0.013-0.023,0.015-0.026   c-0.001-0.003-0.01-0.037-0.01-0.04c-0.002-0.002-0.004-0.017-0.006-0.021c0.001-0.003,0.013-0.021,0.015-0.024   c-0.001-0.003-0.01-0.038-0.011-0.041c-0.001-0.003-0.005-0.018-0.005-0.02c-0.001-0.001-0.004-0.015-0.006-0.021   c-0.001-0.003-0.01-0.037-0.01-0.04s-0.005-0.018-0.007-0.02c0-0.004-0.005-0.018-0.005-0.021   c-0.004-0.001-0.027-0.032-0.031-0.035c-0.002-0.005-0.005-0.018-0.005-0.021c-0.001-0.001-7.059-3.188-10.265-3.722   c4.647,0.058,8.589,0.768,11.237,2.747c1.152-2.646,1.745-4.987,0.933-7.59C501.18,912.024,501.174,911.979,501.155,911.921z    M388.622,782.267c0.011,0.025,0.009,0.053,0.021,0.08c0.001,0.003,0.005,0.016,0.005,0.02c0.004,0.01,0.01,0.032,0.011,0.041   c0.001,0.003,0.005,0.016,0.006,0.019c0.005,0.022,0.017,0.06,0.022,0.082c-0.001,0.001,0.003,0.014,0.005,0.02   c0.034,0.096,0.052,0.203,0.082,0.302c1.543,5.293-2.285,15.323-6.084,21.896c4.324-8.404,8.318-22.585,1.754-24.72   c-3.337-1.086-7.19-2.624-11.15-2.75c4.398-0.101,8.659,1.246,12.32,2.264c1.28,0.356,2.172,1.132,2.736,2.212   C388.438,781.903,388.54,782.083,388.622,782.267z M372.857,777.246c0.005-0.001-0.002,0.018,0.005,0.02   c-0.014-0.002-0.014-0.015-0.024-0.013C372.839,777.25,372.853,777.245,372.857,777.246z M391.248,851.215   c-1.202-1.145-2.432-2.327-3.648-3.592c-7.201-7.484-9.442-16.89-17.011-25.103c-4.049-4.394-6.334-5.319-8.755-6.9   c-0.003-0.001-0.038-0.005-0.047-0.011c-4.825-0.92-9.876-2.371-15.901-4.073c-12.118-3.427-10.956-4.274-17.237-8.176   l7.122,13.657c1.139,2.589,0.724,5.509-0.878,6.339l-1.128,0.717c1.086-0.127,1.964-0.201,3.121-0.146   c5.93,0.283,14.073,7.835,14.073,7.835c5.592,2.425,10.407,5.224,13.269,8.873C365.358,841.343,382.634,847.997,391.248,851.215z    M370.289,778.409c0.002,0.002,0.005,0.02,0.005,0.02c0.004,0.01,0.01,0.032,0.011,0.041c0.001,0.003,0.004,0.017,0.005,0.02   c0.006,0.022,0.013,0.043,0.016,0.061c0.009,0.033,0.026,0.093,0.033,0.121c2.202,7.599-3.516,22.559-6.912,25.192   c-0.002,0.002-0.017,0.004-0.019,0.006c-0.019,0.013-0.04,0.027-0.055,0.037c-0.195,0.131-0.436,0.213-0.68,0.291l0.01,0.038   c2.481,2.211,5.62,3.84,7.876,4.992c1.742,0.891,4.555,2.08,6.567,1.878c-2.195,0.531-5.472-0.616-7.469-1.528   c-4.327-1.975-11.678-5.365-12.369-11.257c-0.751-6.411,1.775-14.139,7.07-18.135c0.044-0.03,0.085-0.065,0.124-0.098   c-0.042,0.036-0.081,0.062-0.124,0.098c-4.545,3.881-6.453,11.313-5.589,17.521c0.335,2.411,1.697,4.43,3.48,6.124   c3.619-4.111,8.7-17.854,7.389-26.162c0.098-0.022,0.21-0.043,0.308-0.061c0.098,0.224,0.195,0.463,0.276,0.705   c0.002,0.008,0.007,0.031,0.011,0.041c-0.001,0.001,0.003,0.018,0.005,0.02c0.002,0.002,0.003,0.018,0.005,0.02   C370.264,778.396,370.286,778.408,370.289,778.409z M329.253,767.233c-4.34,5.531-7.432,18.795-3.191,24.046   c1.426,1.766,2.013,3.029,2.024,3.678c-0.001,0.021,0.003,0.065,0.002,0.086c-0.004,0.01-0.002,0.056-0.004,0.065   c0,0.006,0.006,0.022,0.006,0.022c-0.003,0.009-0.021,0.055-0.024,0.071c-0.004,0.007-0.012,0.02-0.015,0.026   s-0.012,0.02-0.017,0.024c0,0.006-0.025,0.048-0.029,0.052c-0.002,0.008-0.01,0.022-0.014,0.025   c-0.013,0.011-0.047,0.03-0.053,0.039c-0.009,0.008-0.023,0.043-0.031,0.05c-0.004,0-0.039,0.01-0.041,0.011   c-0.002,0.002-0.018,0.005-0.02,0.004c-0.004,0.003-0.016,0.007-0.018,0.009c-0.007-0.001-0.036,0.01-0.042,0.008   c-0.009,0.004-0.031,0.009-0.04,0.013c-0.004,0-0.038,0.009-0.042,0.008c-0.01-0.002-0.041-0.026-0.051-0.028   c-0.009,0.004-0.052,0.013-0.062,0.015c-0.013-0.002-0.055-0.001-0.065-0.003c-0.808-0.161-2.377-1.519-4.024-4.271   C319.099,783.824,324.882,772.094,329.253,767.233z M322.34,770.927c-2.426,4.73-4.105,13.901-1.902,17.549   c0.876,1.448,1.154,2.489,1.069,2.939c-0.001,0.011-0.007,0.036-0.008,0.047c-0.001,0.001-0.014,0.022-0.015,0.026   c-0.002,0.002-0.015,0.023-0.015,0.026c-0.005,0.004-0.014,0.019-0.014,0.025c-0.009,0.008-0.049,0.028-0.057,0.035   s-0.021,0.045-0.029,0.052c-0.013,0.004-0.05,0.015-0.06,0.017c-0.002,0.002-0.02,0.003-0.021,0.005   c-0.033-0.006-0.112-0.02-0.136-0.027c-0.482-0.147-1.36-1.16-2.235-3.169C316.687,783.333,319.741,775.142,322.34,770.927z    M327.071,825.997c-0.009-0.006-0.023-0.015-0.025-0.016c-0.002-0.005-0.005-0.016-0.005-0.02c-0.005-0.016-0.016-0.051-0.017-0.06   c-0.008-0.031-0.02-0.078-0.027-0.102c-0.001-0.003-0.011-0.038-0.011-0.041c-0.003-0.001-0.022-0.012-0.025-0.013   c-1.91-3.545-4.206-5.656-6.679-7.067c2.893,2.771,4.138,5.433,4.792,8.027c0.66-0.268,1.329-0.461,2.007-0.669   C327.083,826.034,327.071,825.997,327.071,825.997z"/>
	<path id="path5793" d="M391.242,851.22c-1.199-1.144-2.432-2.324-3.648-3.588c-7.199-7.482-9.445-16.898-17.013-25.111   c-4.049-4.394-6.332-5.318-8.754-6.9c-0.003-0.001-0.03-0.018-0.035-0.021c-4.825-0.92-9.882-2.352-15.908-4.056   c-12.118-3.427-10.959-4.274-17.244-8.18l7.129,13.665c1.139,2.589,0.725,5.498-0.875,6.33l-1.519,0.696   c1.139-0.142,2.303-0.191,3.518-0.133c5.928,0.281,14.062,7.844,14.062,7.844c5.594,2.427,10.409,5.222,13.269,8.869   C365.354,841.339,382.63,848.004,391.242,851.22z M385.429,847.202c-5.868-2.459-17.611-7.519-18.558-8.117   c-1.794-2.387-4.618-4.315-7.939-6.02c-0.001,0.001-0.031-0.017-0.033-0.019c-0.004-0.003-0.005-0.023-0.008-0.027   c-0.003-0.001-0.025,0.008-0.026,0.009c-11.515-9.301-18.723-17.771-0.987-13.923c0.002-0.002,0.026-0.005,0.028-0.007   c0.128,0.04,0.253,0.09,0.382,0.13c0.001-0.001,0.023-0.009,0.025-0.008c0.006-0.001,0.022-0.008,0.026-0.009   c0.004,0,0.007,0.028,0.008,0.027c0.084,0.027,0.169,0.053,0.252,0.077c2.179,0.677,4.219,1.249,6.174,1.697   c1.675,1.184,3.224,1.901,6.058,5.138c5.299,6.049,7.033,12.889,12.068,18.405C383.749,845.488,384.589,846.355,385.429,847.202z"/>
	
		<linearGradient id="path6683_1_" gradientUnits="userSpaceOnUse" x1="3514.9702" y1="3721.905" x2="3549.1821" y2="3781.1619" gradientTransform="matrix(0.193 -0.2777 -0.2777 -0.193 755.4169 2493.7627)">
		<stop offset="0" style="stop-color:#000000"/>
		<stop offset="0.57" style="stop-color:#000000"/>
		<stop offset="1" style="stop-color:#000000"/>
	</linearGradient>
	<path id="path6683" fill="url(#path6683_1_)" d="M385.416,847.196c-0.837-0.845-1.67-1.722-2.518-2.653   c-5.033-5.517-6.755-12.344-12.053-18.394c-2.835-3.236-4.405-3.942-6.08-5.126c-1.956-0.447-3.993-1.038-6.174-1.715   c-0.082-0.025-0.161-0.057-0.245-0.083c-0.019-0.004-0.041,0.001-0.06-0.003c-0.128-0.04-0.25-0.079-0.38-0.118   c-0.006-0.001-0.018,0.012-0.026,0.009c-17.737-3.848-10.523,4.601,0.992,13.902c0.017,0.009,0.028,0.031,0.047,0.041   c3.322,1.704,6.151,3.634,7.949,6.025C367.648,839.61,379.505,844.719,385.416,847.196z"/>
	<path id="path5717" sodipodi:nodetypes="cssscccsccscsccccsscc" d="M397.321,788.313c-0.075-0.271-0.17-0.531-0.256-0.796   c-5.549-16.958-41.105-22.431-59.089-27.728c-23.127-6.812-18.518-9.565-27.419-21.038c-13.017-16.776-31.201-18.288-47.057-17.726   c-16.932-6.949-58.696-13.918-80.309-14.16l-39.197,6.192c0.41,1.622,0.849,3.253,1.284,4.874c0.705,2.628,1.425,5.241,2.187,7.838   c12.083-3.157,96.547-14.195,108.275-2.752c-9.545,2.36-15.825,9.543-14.776,10.868c0.023,0.025,0.059,0.062,0.088,0.084   c9.831-7.375,17.269-8.116,20.382-7.972c13.366,0.61,29.331,1.398,32.985,3.675c-7.177-0.471-14.041,2.289-19.18,6.396   c6.635-4.142,24.227-6.224,25.226,0.494c-2.807-0.714-19.645,0.948-24.395,7.378c38.111-7.669,26.541,7.844,54.46,16.349   c27.919,8.506,38.64,9.669,55.789,19.368c14.811,8.377,9.602,18.021,8.846,23.156C398.24,797.164,398.453,792.39,397.321,788.313z"/>
	<path id="path5719" sodipodi:nodetypes="cssscssssc" d="M263.527,782.709c7.107,4.326,20.477,7.792,32.249,8.8   c16.885,1.445,15.387-1.229,33.191,8.875c13.815,7.84,29.222,11.162,45.392,12.583c16.171,1.42,14.953-5.477,18.894-7.883   c-1.074,4.439-5.139,8.839-12.108,9.458c-12.919,1.142-22.635-1.643-37.487-5.991c-14.851-4.345-11.441-4.823-21.519-10.412   c-14.636-8.116-28.313-3.892-43.214-6.638C270.471,789.944,265.869,785.321,263.527,782.709z"/>
	<path id="path5722" sodipodi:nodetypes="cssc" d="M331.361,765.324c-4.135,2.417-13.041,17.19-7.856,25.855   c3.603,6.02,6.811,5.366,2.565,0.109C321.178,785.231,326.088,768.547,331.361,765.324z"/>
	<path id="path5726" sodipodi:nodetypes="cssc" d="M324.194,768.496c-2.492,1.953-8.101,13.475-5.271,19.97   c1.967,4.513,3.869,3.932,1.504,0.018C317.705,783.979,321.011,771.094,324.194,768.496z"/>
	<path id="path5730" d="M369.953,777.616c-0.099,0.019-0.208,0.041-0.306,0.063c1.317,8.34-3.783,22.129-7.404,26.182   c0.135,0.129,0.281,0.245,0.422,0.372c0.002-0.002,0.022-0.012,0.024-0.013c0.279-0.087,0.543-0.199,0.755-0.365   C367.005,801.093,373.094,784.786,369.953,777.616z"/>
	<path id="path5735" sodipodi:nodetypes="cscscccsscssc" d="M388.331,781.736c-0.564-1.077-1.45-1.85-2.729-2.205   c-4.568-1.271-10.02-3.12-15.571-1.947c5.085-0.958,10.156,1.034,14.406,2.418c7.209,2.345,1.645,19.221-3.064,27.011   C385.826,800.311,391.163,787.156,388.331,781.736z M366.386,778.847c-6.679,3.381-9.917,12.268-9.076,19.451   c0.691,5.894,8.039,9.308,12.366,11.283c2.167,0.988,5.867,2.291,8.028,1.386c-2.017,0.54-5.206-0.773-7.123-1.753   c-4.072-2.08-10.982-5.67-11.796-11.511C357.804,790.657,360.431,782.073,366.386,778.847z"/>
	<path id="path5741" d="M518.002,888.418c-0.099-0.308-0.226-0.616-0.355-0.922c-2.498-5.929-10.198-11.492-18.567-12.974   c-11.897-2.106-16.251,1.348-26.006,3.548c-6.184,1.393-16.141,2.251-20.714,1.068c-0.863-0.223-1.692-0.44-2.512-0.648   c-4.269,1.738-8.669,3.066-13.063,3.609c7.315-0.161,16.203,0.142,24.649-0.283c-1.63,1.589-2.14,3.631-0.402,9.894   c-1.038-5.728,1.297-7.115,3.06-9.913c4.632-0.372,10.065-1.236,13.89-2.38c11.265-3.371,22.648-5.074,30.433,1.503   c5.637,4.761,9.506,10.121,7.731,15.682c-3.349-2.01-8.053-2.358-13.516-1.878c3.695,0.217,10.886,1.715,12.368,3.008   c0.02,0.017,0.039,0.048,0.062,0.069c0.003,0.004,0.024,0.012,0.026,0.015c0.002,0.003,0.002,0.017,0.006,0.021   c0.018,0.023,0.049,0.052,0.062,0.069c0.001,0.003,0.003,0.018,0.006,0.021c0.015,0.018,0.048,0.037,0.056,0.05   c0.002,0.002,0.004,0.015,0.006,0.019c0.004,0.01,0.008,0.035,0.011,0.041c0.003,0.009,0.004,0.027,0.01,0.04   c0,0.002,0.005,0.018,0.006,0.021c0.001,0.003,0.005,0.02,0.005,0.02c-0.001,0.015-0.009,0.036-0.008,0.046   c0,0.017-0.002,0.049-0.005,0.066c0,0.002,0.005,0.018,0.005,0.021c0,0.005,0.005,0.014,0.005,0.02   c0,0.005-0.012,0.022-0.014,0.025c-0.008,0.022-0.014,0.051-0.024,0.071c-0.002,0.005-0.012,0.022-0.015,0.026   c-0.011,0.019-0.031,0.059-0.045,0.077c-0.013,0.017-0.035,0.041-0.05,0.057c-0.007,0.008-0.026,0.023-0.035,0.031   c-0.034,0.028-0.084,0.074-0.124,0.098c-1.177,0.653-5.31-0.68-14.608,1.727c-10.484,2.716-15.54,4.763-27.415,7.822   c-11.874,3.06-10.135,1.936-20.435,3.484c-10.302,1.549-7.731,1.306-21.233,1.966c-13.502,0.658-13.191,4.043-33.527,0.041   c-20.243-3.984-23.89-11.902-45.447-19.716c-21.574-7.82-21.545-2.153-38.68-13.298c-7.467-4.858-10.033-7.627-12.65-11.009   c-0.016-0.017-0.041-0.033-0.057-0.05c-0.025-0.033-0.042-0.058-0.067-0.092c-2.208-2.27-4.494-5.055-6.833-8.453   c-0.02-0.03-0.046-0.059-0.067-0.089c-2.434-2.683-5.678-5.941-10.312-10.121c-20.654-18.628-21.768-32.417-53.6-41.67   c-20.917-6.08-38.333-10.344-53.479-13.492c1.129,2.047,2.266,4.078,3.43,6.095c16.625,2.005,34.804,4.538,50.253,10.589   c19.162,7.505,28.742,17.195,33.75,22.849c13.382,15.107,22.396,19.077,35.775,36.466c20.176,26.223,38.599,14.177,68.247,31.924   c18.711,11.198,25.921,11.966,37.584,13.809c8.574,1.356,21.901-1.685,48.607-3.713c24.764-1.882,42.668-12.632,53.228-13.138   c9.011-0.431,10.73,0.442,11.067-8.875C518.513,890.625,518.36,889.517,518.002,888.418z"/>
	<path id="path5753" sodipodi:nodetypes="cccsccsssssssssssssssccsssssc" d="M501.931,910.399c-1.172-2.432-3.386-4.831-6.097-6.804   c-0.369,0.123-0.74,0.233-1.117,0.362c0.883,0.592,1.692,1.243,2.397,1.98c5.371,5.609,5.112,9.202,3.146,13.719   c-2.662-1.989-6.611-2.692-11.287-2.746c3.169,0.496,9.513,2.492,10.323,3.71c0.006,0.01,0.016,0.041,0.021,0.051   c0.006,0.011,0.016,0.041,0.021,0.051c0.001,0.006,0.007,0.021,0.01,0.026c0.001,0.006,0.009,0.021,0.011,0.026   c0.002,0.01,0.02,0.042,0.02,0.052c0.002,0.014-0.004,0.047-0.005,0.062s0,0.049-0.004,0.063c-0.003,0.008-0.01,0.027-0.015,0.036   c-0.013,0.026-0.041,0.06-0.056,0.083c-0.697,0.919-3.886-0.95-12.639,0.389c-9.034,1.383-13.465,2.682-23.697,4.235   c-10.231,1.553-8.688,0.754-17.469,1.172c-8.781,0.418-6.601,0.687-17.978-0.159c-24.189-1.798-28.153,1.064-35.211-1.973   c-4.596-1.977-10.515-9.228-16.955-16.892c-2.177-1.166-4.517-2.517-7.091-4.052c2.35,2.491,4.462,4.957,6.303,7.385   c3.554,4.688,11.219,12.637,14.55,14.521c7.091,4.01,17.443,1.857,57.639,3.008c20.95,0.599,36.935-6.44,45.857-6.462   c9.089-0.025,7.919,1.057,10.015-6.494C503.092,914.055,502.809,912.221,501.931,910.399z"/>
	<path id="path5758" d="M491.326,849.329c-2.598-5.38-11.147-9.605-19.743-9.499c-11.374,0.137-14.957,3.958-23.733,7.562   c-5.563,2.284-9.117,3.244-13.513,3.211c-10.905-0.08-34.195,3.765-35.554,3.948c-0.002,0.002-0.023,0.009-0.026,0.009   c-1.457-0.288-32.992-11.697-34.348-12.556c-3.009-3.697-8.174-6.53-14.21-8.999c0,0-8.643-7.666-15.12-7.97   c-1.328-0.063-2.613-0.02-3.865,0.119l1.708-0.69c1.779-0.835,2.305-3.774,1.144-6.395l-9.766-18.689   c-0.646-0.383-1.353-0.788-2.154-1.232c-0.675-0.375-1.35-0.726-2.021-1.05l11.952,20.451c0.902,2.168-0.031,5.563-1.404,6.2   c-0.033,0.015-0.088,0.037-0.13,0.052c-0.006,0.001-0.019,0.009-0.025,0.011c-0.026,0.005-0.089,0.011-0.115,0.016   c-0.03,0.005-0.083,0.013-0.114,0.015c-0.108,0.007-0.237-0.009-0.348-0.04c-0.007-0.001-0.026-0.011-0.036-0.014   c-0.262-0.092-0.554-0.278-0.816-0.604l-6.665-6.124c-3.909-2.778-6.944-5.203-10.843-5.065c3.953,2.666,7.518,5.801,7.7,10.313   c-9.241-5.554-18.994-15.284-26.164-22.828c5.87,8.274,16.141,18.13,28.718,28.839c-1.822,1.056-3.578,2.342-5.303,3.86   c6.48-3.632,12.661-5.559,19.73-4.886c3.967,1.087,6.113,2.616,8.246,4.157c-3.866,0.789-8.09,0.92-10.955,3.504   c3.913-1.929,8.708-1.703,13.739-0.867c4.754,1.537,8.725,3.738,12.165,6.396c-5.632,0.313-8.802,2.788-11.247,5.908   c4.565-2.24,9.126-4.487,14.206-2.618c10.411,2.868,23.365,9.376,31.124,12.479c-1.333,3.152-2.07,6.594-2.362,10.378   c1.071-3.572,2.347-6.807,4.027-9.76c2.383,0.876,4.074,1.291,4.782,0.955c6.888-3.281,26.515-5.72,37.549-5.117   c-1.29,1.678-1.469,3.544,0.986,8.755c-1.697-4.825,0.254-6.484,1.494-9.247c4.262-1.113,9.181-2.799,12.585-4.462   c10.019-4.9,20.399-8.327,28.57-3.8c5.916,3.279,10.266,7.395,9.391,12.637c-3.443-1.234-7.922-0.755-13.021,0.636   c3.466-0.467,10.784-0.362,12.197,0.602c0.009,0.006,0.038,0.033,0.047,0.04c0.011,0.009,0.037,0.033,0.047,0.042   c0.009,0.009,0.037,0.03,0.047,0.041c0.005,0.006,0.006,0.022,0.01,0.027c0.001,0.003,0.009,0.023,0.01,0.026   c0.01,0.007,0.039,0.034,0.047,0.041c0.002,0.005,0.009,0.021,0.011,0.026c-0.003,0.006-0.013,0.03-0.016,0.037   c0.001,0.001,0.009,0.023,0.01,0.026c0.002,0.002,0.01,0.024,0.011,0.026c-0.001,0.011-0.004,0.051-0.005,0.062   c-0.288,1.344-4.197,0.199-13.58,4.385c-9.384,4.185-12.572,7.716-23.001,11.901c-11.348,4.553-10.504,4.6-19.998,6.231   c-6.903,1.184-10.428,1.998-18.86,5.768c-11.259,5.03-14.002,8.093-32.427,1.114c-6.4-2.424-17.556-2.664-26.118-4.869   c-5.312-1.369-11.855-2.947-20.43-4.283c-21.186-3.304-22.821-2.273-29.479-7.667c-5.769-4.673-11.364-8.757-18.816-20.894   c22.859,42.244,36.295,24.115,66.386,34.874c18.994,6.79,24.945,2.403,36.884,9.003c11.687,6.462,26.864-10.076,44.717-11.51   c18.908-1.52,38.025-18.421,47.771-20.696c8.323-1.943,10.033-1.375,9.044-9.713c-0.094-0.788-0.3-1.576-0.643-2.329   C491.381,849.472,491.357,849.392,491.326,849.329z M326.96,825.733c0.047,0.085,0.07,0.197,0.115,0.284   c-0.679,0.206-1.348,0.423-2.007,0.693c-0.659-2.616-1.9-5.302-4.843-8.095C322.726,820.026,325.033,822.155,326.96,825.733z    M307.028,799.479c-0.508-1.083-1.236-2.098-1.792-3.159c-0.949-1.264-2.021-2.428-3.243-3.475   c-0.003,0.003-0.024,0.01-0.026,0.012c-1.719-0.097-3.433-0.137-5.157-0.17c4.382,2.527,8.267,5.803,10.552,11.563   c0.572-1.742,0.344-3.143-0.2-4.436C307.117,799.702,307.08,799.591,307.028,799.479z"/>
	
		<radialGradient id="path10809_1_" cx="3798.2871" cy="6551.9219" r="68.6983" gradientTransform="matrix(0.4166 0.0042 -0.2688 -0.2511 557.3789 2451.7861)" gradientUnits="userSpaceOnUse">
		<stop offset="0" style="stop-color:#1F1F1F"/>
		<stop offset="1" style="stop-color:#000000"/>
	</radialGradient>
	<path id="path10809" opacity="0.701" fill="url(#path10809_1_)" enable-background="new    " d="M484.533,846.043   c-1.033-0.729-2.167-1.416-3.358-2.076c-8.171-4.528-18.553-1.116-28.571,3.784c-3.402,1.666-8.321,3.358-12.584,4.469   c-1.231,2.742-3.166,4.4-1.538,9.139c-2.401-5.129-2.211-6.984-0.931-8.649c-11.034-0.602-30.684,1.845-37.572,5.126   c-0.707,0.338-2.384-0.099-4.767-0.975c-1.68,2.952-2.955,6.204-4.027,9.776c0.292-3.784,1.024-7.246,2.357-10.398   c-7.761-3.102-20.72-9.592-31.131-12.459c-5.08-1.869-9.64,0.38-14.208,2.62c2.445-3.119,5.615-5.589,11.247-5.901   c-3.439-2.658-7.398-4.886-12.151-6.424c-4.955-0.824-9.668-1.064-13.546,0.77c2.859-2.446,6.966-2.632,10.76-3.403   c-2.133-1.54-4.281-3.061-8.246-4.146c-7.017-0.671-13.156,1.204-19.58,4.782c1.68-1.467,3.377-2.718,5.15-3.748   c-12.575-10.708-22.839-20.583-28.708-28.858c7.17,7.547,16.903,17.287,26.142,22.842c-0.18-4.51-3.723-7.644-7.674-10.311   c3.898-0.137,6.919,2.267,10.828,5.044l6.67,6.133c0.124,0.152,0.262,0.288,0.392,0.384c0.095,0.068,0.215,0.136,0.308,0.179   c0.012,0.006,0.053,0.029,0.067,0.038c0.004,0.003,0.031,0.018,0.033,0.019c0.004,0,0.026-0.005,0.03-0.005   c0.002-0.002,0.023-0.006,0.025-0.008c0.066,0.018,0.147,0.044,0.219,0.058c0.011,0.001,0.047,0.011,0.059,0.01   c0.006,0.001,0.021-0.005,0.027-0.006c0.004,0,0.024-0.007,0.028-0.007c0.026-0.001,0.088,0,0.115-0.002   c0.023-0.006,0.082-0.022,0.107-0.029c0.004,0,0.024-0.007,0.028-0.007c0.006-0.001,0.021-0.005,0.027-0.006   c0.022-0.012,0.053-0.038,0.074-0.049c0.004-0.003,0.023-0.006,0.026-0.009c1.373-0.637,2.307-4.016,1.406-6.184l-11.955-20.459   c-6.137-2.961-12.122-3.882-18.118-4.218c1.213,1.042,2.29,2.184,3.234,3.439c0.557,1.062,1.291,2.076,1.8,3.159   c0.052,0.111,0.1,0.222,0.146,0.335c0.545,1.292,0.749,2.69,0.177,4.431c-2.279-5.744-6.151-9.016-10.518-11.541   c-0.01-0.005-0.023-0.014-0.033-0.019c-5.852-0.113-11.773-0.062-17.884-1.188c-3.55-0.653-6.414-1.853-8.72-3.212   c3.835,39.662,56.8,77.102,118.812,83.819C431.182,876.667,466.8,865.852,484.533,846.043z"/>
	
		<radialGradient id="path11749_1_" cx="3969.0942" cy="7009.0928" r="53.8317" gradientTransform="matrix(0.3744 0.0054 -0.2286 -0.242 443.4404 2421.8921)" gradientUnits="userSpaceOnUse">
		<stop offset="0" style="stop-color:#1F1F1F"/>
		<stop offset="1" style="stop-color:#000000"/>
	</radialGradient>
	<path id="path11749" opacity="0.4559" fill="url(#path11749_1_)" enable-background="new    " d="M395.573,788.665   c-1.332-2.99-4.077-6.059-9.256-8.988c-17.149-9.699-27.863-10.872-55.782-19.378c-27.919-8.506-16.374-24.044-54.486-16.374   c4.751-6.432,21.603-8.061,24.41-7.348c-0.984-6.613-18.063-4.73-24.924-0.719c5.092-3.965,11.797-6.667,18.817-6.224   c-3.817-2.237-19.644-3.057-32.909-3.665c-1.784-0.082-5,0.14-9.271,1.733c11.398,21.311,35.432,40.759,66.515,52.212   c0.878-3.929,2.7-7.758,4.219-9.916c-1.456,2.338-2.747,6.406-3.261,10.263c0.892,0.323,1.774,0.621,2.676,0.929   c1.185-5.998,4.823-11.976,7.593-14.687c-2.825,3.015-5.28,9.471-5.782,15.3c3.022,0.995,6.095,1.916,9.232,2.756   c8.389,2.247,16.718,3.794,24.862,4.691c1.27-3.99,3.687-7.613,7.094-9.758c-3.091,2.149-5.147,5.845-6.11,9.872   c3.123,0.326,6.2,0.561,9.259,0.698c1.151-4.345,1.744-8.857,1.185-12.396c0.098-0.022,0.205-0.035,0.304-0.051   c0.097,0.222,0.194,0.464,0.276,0.706c1.023,3.065,0.642,7.472-0.398,11.777c6.108,0.213,12.089,0.045,17.844-0.476   c0.631-4.685-0.051-8.579-3.241-9.618c-3.864-1.259-8.404-3.048-13.017-2.64c5.067-0.632,10.002,0.988,14.185,2.153   c1.28,0.356,2.17,1.138,2.733,2.215c0.176,0.338,0.322,0.7,0.438,1.095c0.525,1.798,0.445,4.141-0.049,6.716   C391.046,789.317,393.329,789.008,395.573,788.665z"/>
	<path id="path11747" opacity="0.701" fill="#1DFFFF" fill-opacity="0.5938" enable-background="new    " d="M371.032,777.413   c-0.074,0.008-0.145,0.022-0.221,0.032C370.885,777.433,370.959,777.425,371.032,777.413z"/>
	<path id="path11745" opacity="0.701" fill="#1DFFFF" fill-opacity="0.5938" enable-background="new    " d="M365.441,779.403   c-0.035,0.023-0.067,0.033-0.1,0.057C365.379,779.435,365.403,779.428,365.441,779.403z"/>
	<path id="path11743" opacity="0.701" fill="#1DFFFF" fill-opacity="0.5938" enable-background="new    " d="M330.262,766.178   c-0.019,0.019-0.028,0.023-0.047,0.043C330.229,766.206,330.246,766.192,330.262,766.178z"/>
	
		<radialGradient id="path13548_1_" cx="2028.7838" cy="3741.3616" r="13.6262" gradientTransform="matrix(1.0573 -0.5062 -1.0003 -0.2364 2054.5967 2787.3794)" gradientUnits="userSpaceOnUse">
		<stop offset="0" style="stop-color:#1F1F1F"/>
		<stop offset="1" style="stop-color:#000000"/>
	</radialGradient>
	<path id="path13548" opacity="0.4559" fill="url(#path13548_1_)" enable-background="new    " d="M511.289,883.569   c-0.884-0.896-1.854-1.777-2.875-2.64c-7.784-6.576-19.163-4.897-30.427-1.525c-3.825,1.144-9.259,2.022-13.891,2.393   c-1.749,2.776-4.084,4.145-3.106,9.759c-1.693-6.159-1.193-8.158,0.426-9.735c-8.314,0.418-17.035,0.122-24.285,0.267   c-0.005,0-0.022,0.006-0.026,0.007c-0.02,0-0.042-0.012-0.061-0.012c-0.005,0.001-0.023,0.007-0.027,0.008   c-0.591,0.076-1.18,0.138-1.77,0.184c-9.514,0.767-18.265,5.825-26.142,9.402c14.59,5.42,33.878,7.699,54.63,5.588   C482.075,895.399,498.584,890.398,511.289,883.569z"/>
	
		<radialGradient id="path14477_1_" cx="3589.4258" cy="5727.3359" r="19.0375" gradientTransform="matrix(0.9994 -0.2209 -0.8682 -0.0765 1824.0002 2141.2144)" gradientUnits="userSpaceOnUse">
		<stop offset="0" style="stop-color:#1F1F1F"/>
		<stop offset="1" style="stop-color:#000000"/>
	</radialGradient>
	
		<path id="path14477" sodipodi:nodetypes="csssssssssssssssssssssssssssssssssssssssssssssccsssssssssssssssssssssssssssssssssssssssssssssssssssssssssssssssssssssssssssssssssssssssssssssssssssssssssssssssssssssssssssssssssssssssssssssssssssssssssssssssssssssssssssssssssssssssssssssssssssssssssscsc" opacity="0.4559" fill="url(#path14477_1_)" enable-background="new    " d="   M499.598,908.949c-0.028-0.041-0.061-0.08-0.09-0.121c-0.033-0.048-0.062-0.099-0.098-0.147c-0.042-0.059-0.087-0.107-0.13-0.167   c-0.005-0.008-0.003-0.021-0.008-0.027c-0.016-0.023-0.031-0.051-0.049-0.074c-0.024-0.032-0.058-0.061-0.083-0.094   c-0.022-0.03-0.033-0.07-0.056-0.1c-0.007-0.011-0.027-0.01-0.034-0.02c-0.014-0.019-0.027-0.028-0.041-0.046   c-0.006-0.007-0.002-0.02-0.008-0.027c-0.018-0.023-0.031-0.05-0.049-0.074c-0.075-0.097-0.143-0.19-0.221-0.288   c-0.049-0.062-0.115-0.124-0.166-0.187c-0.044-0.054-0.086-0.112-0.13-0.167c-0.018-0.021-0.031-0.053-0.049-0.074   c-0.008-0.01-0.026-0.011-0.034-0.02c-0.013-0.016-0.028-0.031-0.042-0.047c-0.121-0.144-0.249-0.299-0.381-0.446   c-0.03-0.035-0.051-0.058-0.082-0.093c-0.029-0.033-0.053-0.061-0.083-0.094c-0.013-0.014-0.029-0.033-0.043-0.047   c-0.013-0.016-0.026-0.031-0.041-0.046c-0.024-0.027-0.051-0.04-0.075-0.067c-0.012-0.012-0.03-0.034-0.041-0.046   c-0.028-0.029-0.057-0.065-0.084-0.093c-0.03-0.034-0.052-0.061-0.083-0.094c-0.013-0.014-0.027-0.032-0.041-0.046   c-0.016-0.017-0.026-0.031-0.042-0.047c-0.025-0.026-0.05-0.039-0.076-0.066c-0.011-0.013-0.029-0.034-0.041-0.046   c-0.028-0.029-0.055-0.065-0.083-0.094c-0.023-0.023-0.054-0.044-0.076-0.066c-0.067-0.069-0.131-0.139-0.2-0.207   c-0.022-0.022-0.052-0.044-0.075-0.067c-0.069-0.066-0.129-0.141-0.199-0.206c-0.025-0.021-0.052-0.046-0.076-0.066   c-0.12-0.108-0.246-0.201-0.371-0.306c-0.024-0.02-0.05-0.045-0.075-0.067c-0.225-0.186-0.454-0.361-0.692-0.536   c-0.027-0.02-0.049-0.048-0.077-0.067c-0.106-0.077-0.213-0.156-0.321-0.232c-0.028-0.019-0.048-0.047-0.076-0.066   c-0.028-0.019-0.068-0.014-0.095-0.033c-0.028-0.019-0.048-0.047-0.076-0.066c0.047-0.016,0.088-0.022,0.135-0.036   c0.329-0.108,0.66-0.214,0.983-0.321c-0.05-0.081-0.108-0.15-0.173-0.215c-0.39,0.13-0.785,0.263-1.186,0.398   c-9.493,3.209-21.727,7.884-36.561,9.573c-0.009,0.001-0.019,0.006-0.028,0.007c-0.008,0.002-0.017,0.006-0.026,0.007   c-0.009,0.001-0.018,0.007-0.027,0.008c-0.161,0.018-0.319,0.024-0.479,0.042c-0.009,0.001-0.019,0.006-0.028,0.007   c-0.009,0.001-0.017,0.006-0.026,0.007s-0.018,0.007-0.027,0.008c-0.161,0.018-0.318,0.025-0.479,0.042   c-0.009,0.001-0.019,0.006-0.028,0.007c-0.009,0.001-0.017,0.006-0.026,0.007c-0.103,0.011-0.208,0.015-0.311,0.026   c-0.173,0.016-0.361,0.04-0.535,0.057c-0.382,0.036-0.77,0.075-1.155,0.107c-0.096,0.008-0.188,0.011-0.284,0.019   c-0.097,0.007-0.188,0.01-0.284,0.017c-0.208,0.017-0.415,0.035-0.622,0.051c-0.828,0.065-1.632,0.125-2.434,0.19   c-0.009,0.001-0.018,0.007-0.027,0.008c-0.191,0.016-0.404,0.027-0.595,0.043c-0.398,0.034-0.791,0.081-1.183,0.115   c-0.195,0.016-0.374,0.021-0.568,0.037c-0.388,0.034-0.774,0.073-1.156,0.107c-0.383,0.035-0.78,0.073-1.156,0.108   c-0.376,0.034-0.731,0.057-1.102,0.092c-0.74,0.07-1.48,0.144-2.196,0.213c-10.548,1.031-18.536,2.089-24.799,2.658   c-0.008,0-0.018,0.007-0.026,0.007c-0.841,0.078-1.654,0.132-2.434,0.19c-0.098,0.007-0.214,0.019-0.31,0.026   c-0.196,0.014-0.377,0.023-0.568,0.036c-0.096,0.007-0.189,0.013-0.283,0.018c-0.285,0.018-0.576,0.039-0.852,0.055   c-0.094,0.005-0.193,0.015-0.285,0.018c-0.366,0.019-0.702,0.04-1.055,0.052c-0.176,0.005-0.375-0.002-0.548,0.002   c-0.259,0.007-0.492,0.023-0.744,0.026c-0.168,0.002-0.356-0.006-0.521-0.005c-0.165,0.001-0.298,0.009-0.461,0.008   c-0.008,0-0.018,0.007-0.026,0.007c-0.163-0.001-0.309-0.016-0.468-0.018c-0.238-0.004-0.466-0.008-0.698-0.016   c-0.154-0.005-0.316-0.012-0.468-0.018c-0.151-0.007-0.291-0.017-0.44-0.027c-0.895-0.054-1.753-0.141-2.557-0.269   c-0.301-0.046-0.608-0.087-0.903-0.133c-0.012-0.002-0.022-0.018-0.035-0.019c-0.281-0.045-0.563-0.078-0.841-0.122   c-0.041-0.006-0.081-0.018-0.122-0.025c-0.28-0.044-0.566-0.077-0.842-0.121c-0.104-0.017-0.202-0.045-0.306-0.062   c-0.041-0.007-0.08-0.019-0.122-0.025c-0.099-0.016-0.199-0.019-0.298-0.035c-0.049-0.008-0.101-0.011-0.149-0.019   c-0.091-0.014-0.181-0.028-0.272-0.042c-0.102-0.017-0.203-0.046-0.305-0.063c-0.041-0.006-0.083-0.018-0.122-0.025   c-0.057-0.009-0.121-0.001-0.176-0.01c-0.082-0.013-0.164-0.037-0.245-0.05c-0.061-0.011-0.123-0.028-0.184-0.038   c-0.072-0.012-0.137-0.018-0.21-0.03c-0.072-0.012-0.14-0.017-0.211-0.03c-0.068-0.011-0.142-0.018-0.21-0.03   c-0.212-0.035-0.429-0.082-0.639-0.119c-0.062-0.01-0.121-0.026-0.183-0.037c-0.08-0.013-0.165-0.035-0.245-0.05   c-0.052-0.009-0.098-0.008-0.15-0.017c-0.091-0.016-0.181-0.026-0.271-0.043c-0.048-0.009-0.102-0.008-0.15-0.017   c-0.104-0.02-0.208-0.071-0.312-0.09c-0.028-0.005-0.06,0-0.088-0.005c-0.099-0.019-0.199-0.018-0.299-0.036   c-0.052-0.01-0.103-0.034-0.156-0.045c-0.019-0.003-0.041-0.009-0.061-0.012c-0.028-0.005-0.061,0-0.088-0.005   c-0.037-0.008-0.057-0.026-0.095-0.033c-0.031-0.006-0.057,0.001-0.087-0.006c-0.042-0.007-0.082-0.017-0.122-0.025   c-0.05-0.01-0.107-0.035-0.157-0.044c-0.019-0.004-0.042-0.009-0.061-0.013c-0.027-0.006-0.059,0-0.087-0.005   c-0.06-0.011-0.123-0.026-0.183-0.037c-0.108-0.022-0.224-0.033-0.332-0.055c-0.013-0.003-0.023-0.017-0.035-0.019   c-0.04-0.01-0.082-0.017-0.121-0.026c-0.032-0.006-0.065-0.025-0.096-0.032c-0.008-0.002-0.018,0.008-0.026,0.007   c-0.127-0.026-0.248-0.074-0.375-0.102c-0.008-0.002-0.019,0.009-0.026,0.007c-0.062-0.013-0.123-0.023-0.184-0.037   c-0.008-0.002-0.019,0.009-0.027,0.008c-0.133-0.029-0.27-0.066-0.402-0.096c-0.067-0.015-0.122-0.049-0.19-0.063   c-0.149-0.036-0.28-0.054-0.429-0.09c-0.067-0.015-0.114-0.019-0.182-0.035c-0.013-0.003-0.023-0.018-0.036-0.02   c-0.056-0.014-0.127-0.024-0.182-0.038c-0.082-0.019-0.162-0.028-0.245-0.05c-0.049-0.012-0.107-0.031-0.156-0.043   c-0.019-0.004-0.042-0.008-0.062-0.015c-0.057-0.012-0.103-0.054-0.164-0.07c-0.006-0.001-0.018,0.009-0.025,0.008   c-0.142-0.035-0.293-0.077-0.436-0.114c-0.07-0.019-0.146-0.039-0.217-0.057c-0.038-0.011-0.084-0.016-0.122-0.025   c-0.032-0.01-0.065-0.026-0.096-0.034c-0.055-0.015-0.102-0.029-0.156-0.044c-0.021-0.005-0.041-0.006-0.061-0.012   c-0.028-0.007-0.061,0.001-0.089-0.006c-0.045-0.013-0.084-0.04-0.128-0.05c-0.028-0.01-0.063-0.001-0.088-0.007   c-0.045-0.013-0.087-0.041-0.13-0.052c-0.021-0.006-0.04-0.007-0.061-0.012c-0.051-0.014-0.105-0.03-0.157-0.046   c-0.019-0.004-0.041-0.006-0.06-0.01c-0.054-0.016-0.106-0.032-0.157-0.046c-0.021-0.006-0.043-0.007-0.061-0.012   c-0.054-0.016-0.103-0.028-0.156-0.043c-0.034-0.012-0.061-0.023-0.096-0.034c-0.042-0.012-0.086-0.038-0.13-0.052   c-0.006-0.001-0.019,0.009-0.025,0.008c-0.065-0.019-0.126-0.045-0.191-0.065c-0.011-0.004-0.023-0.017-0.035-0.021   c-0.06-0.017-0.122-0.018-0.182-0.035c-0.083-0.024-0.142-0.059-0.226-0.086c-0.222-0.069-0.435-0.125-0.66-0.198   c-0.116-0.037-0.228-0.07-0.346-0.11c-0.078-0.025-0.145-0.056-0.225-0.083c-0.031-0.011-0.062-0.022-0.096-0.034   c-0.061-0.02-0.129-0.043-0.189-0.063c-0.012-0.003-0.022-0.015-0.034-0.018c-0.062-0.022-0.131-0.045-0.193-0.066   c-0.011-0.004-0.021-0.016-0.033-0.019c-0.062-0.022-0.123-0.018-0.183-0.037c-0.099-0.035-0.194-0.089-0.293-0.123   c-0.048-0.017-0.106-0.028-0.157-0.046c-0.023-0.007-0.042-0.029-0.066-0.039c-0.051-0.018-0.106-0.025-0.156-0.043   c-0.03-0.012-0.068-0.024-0.096-0.034c-0.044-0.017-0.086-0.036-0.13-0.052c-0.033-0.013-0.063-0.021-0.094-0.032   c-0.044-0.016-0.086-0.036-0.13-0.052c-0.033-0.013-0.062-0.019-0.094-0.032c-0.044-0.016-0.086-0.036-0.13-0.052   c-0.038-0.015-0.084-0.01-0.122-0.025c-0.069-0.026-0.129-0.067-0.198-0.093c-0.012-0.004-0.023-0.015-0.034-0.018   c-0.032-0.014-0.063-0.021-0.094-0.032c-0.049-0.02-0.085-0.036-0.13-0.052c-0.037-0.016-0.086-0.012-0.121-0.026   c-0.044-0.017-0.089-0.037-0.13-0.052c-0.033-0.013-0.064-0.02-0.097-0.033c-0.12-0.048-0.232-0.087-0.352-0.135   c-0.013-0.006-0.022-0.015-0.036-0.02c-0.062-0.025-0.13-0.042-0.19-0.065c-0.022-0.008-0.045-0.029-0.067-0.038   c-0.02-0.01-0.044-0.006-0.063-0.014c-0.063-0.025-0.106-0.072-0.171-0.099c-0.017-0.006-0.043-0.005-0.059-0.01   c-0.065-0.027-0.135-0.068-0.2-0.095c-0.006-0.001-0.018,0.012-0.026,0.009c-0.075-0.031-0.149-0.053-0.224-0.084   c-0.012-0.006-0.024-0.017-0.035-0.021c-0.07-0.029-0.127-0.062-0.198-0.09c-0.032-0.014-0.064-0.02-0.096-0.034   c-0.137-0.056-0.282-0.116-0.422-0.176c-0.164-0.068-0.326-0.144-0.491-0.213c-0.01-0.005-0.021-0.016-0.033-0.019   c-0.154-0.066-0.303-0.129-0.457-0.195c-0.012-0.006-0.023-0.015-0.035-0.021c-0.072-0.031-0.159-0.078-0.232-0.111   c-0.01-0.005-0.022-0.015-0.033-0.019c-0.073-0.033-0.153-0.053-0.226-0.086c-0.1-0.044-0.225-0.097-0.327-0.142   c-0.062-0.029-0.109-0.07-0.17-0.099c-0.031-0.015-0.066-0.018-0.097-0.033c-0.053-0.023-0.107-0.045-0.163-0.071   c-0.068-0.03-0.129-0.059-0.196-0.091c-0.023-0.011-0.046-0.029-0.069-0.04c-0.034-0.016-0.064-0.017-0.094-0.032   c-0.056-0.027-0.109-0.047-0.163-0.071c-0.077-0.036-0.157-0.076-0.234-0.113c-0.011-0.005-0.023-0.015-0.033-0.019   c-0.042-0.019-0.09-0.032-0.13-0.052c-0.047-0.021-0.09-0.056-0.138-0.079c-0.046-0.022-0.09-0.056-0.135-0.078   c-0.043-0.021-0.087-0.031-0.13-0.052c-0.053-0.026-0.111-0.045-0.163-0.071c-0.035-0.018-0.066-0.042-0.102-0.059   c-0.056-0.027-0.107-0.045-0.163-0.071c-0.036-0.017-0.069-0.043-0.104-0.061c-0.059-0.028-0.131-0.035-0.19-0.063   c-0.035-0.018-0.069-0.043-0.104-0.061c-0.153-0.073-0.316-0.172-0.471-0.25c-0.019-0.008-0.042-0.002-0.059-0.01   c-0.08-0.041-0.154-0.072-0.234-0.113c-0.021-0.009-0.046-0.029-0.067-0.038c-0.074-0.038-0.133-0.083-0.204-0.118   c-0.02-0.01-0.044-0.004-0.063-0.014c-0.178-0.089-0.359-0.197-0.538-0.288c-0.008-0.003-0.02,0.01-0.028,0.007   c-0.097-0.049-0.199-0.098-0.299-0.15c17.107,9.951,42.115,15.352,69.579,13.512C466.99,921.141,485.16,916.199,499.598,908.949z"/>
	
		<radialGradient id="path15409_1_" cx="4116.3687" cy="845.0439" r="88.2049" gradientTransform="matrix(-0.1826 -0.3027 -0.3875 -0.0887 1301.1324 2155.8296)" gradientUnits="userSpaceOnUse">
		<stop offset="0" style="stop-color:#1F1F1F"/>
		<stop offset="1" style="stop-color:#000000"/>
	</radialGradient>
	<path id="path15409" opacity="0.4559" fill="url(#path15409_1_)" enable-background="new    " d="M341.567,879.53   c-12.845-30.8-42.022-62.665-82.073-85.787c-33.181-19.157-67.83-28.846-97.563-29.178l-0.286,0.62   c4.49,10.476,9.46,20.642,14.877,30.481c15.154,3.151,32.566,7.452,53.49,13.533c31.833,9.254,32.947,23.042,53.6,41.67   c4.634,4.18,7.883,7.458,10.317,10.141c0.001-0.001,0.014-0.005,0.021-0.005c-1.913-2.786-3.851-6.016-5.891-9.701   c7.031,11.088,12.452,15.015,18.002,19.511c6.656,5.392,8.282,4.369,29.466,7.671C337.661,878.817,339.672,879.177,341.567,879.53z   "/>
</g>
</svg>